<svg width="1140" height="448" viewBox="0 0 1140 448" fill="none" xmlns="http://www.w3.org/2000/svg">
<path d="M7.524 44.184C6.182 44.184 4.906 43.15 4.906 41.588V31.842H1.628V41.588C1.628 45.02 4.422 47.22 7.524 47.22C10.626 47.22 13.376 45.02 13.376 41.588V31.842H10.142V41.588C10.142 43.15 8.866 44.184 7.524 44.184ZM28.9221 31.842H25.0721L22.2341 36.374L19.4181 31.842H15.5461L20.3201 38.926L15.0841 47H18.8681L22.2341 41.5L25.6001 47H29.4061L24.1481 38.926L28.9221 31.842ZM36.6297 47H39.8637V40.95H44.8137V38.134H39.8637V34.68H46.1117V31.842H36.6297V47ZM50.5285 43.414C50.5285 40.686 51.3205 39.322 53.0805 39.322C53.5865 39.322 54.0925 39.366 54.6425 39.63L55.1925 36.88C54.6865 36.638 54.1585 36.506 53.4325 36.506C52.3765 36.506 51.0565 37.298 50.5285 39.212V36.726H47.4705V47H50.5285V43.414ZM59.8092 36.726H56.7732V47H59.8092V36.726ZM56.3772 32.92C56.3772 33.91 57.2572 34.724 58.2912 34.724C59.3472 34.724 60.1612 33.91 60.1612 32.92C60.1612 31.886 59.3252 31.138 58.2912 31.138C57.2572 31.138 56.3772 31.908 56.3772 32.92ZM69.833 43.612C69.327 44.294 68.447 44.58 67.589 44.58C66.489 44.58 65.235 44.052 65.059 42.864H72.583C72.605 42.6 72.627 42.182 72.627 41.918C72.627 38.684 70.295 36.506 67.369 36.506C64.443 36.506 62.001 38.574 62.001 41.83C62.001 45.064 64.443 47.22 67.369 47.22C69.129 47.22 70.999 46.67 72.055 45.13L69.833 43.612ZM65.103 40.95C65.345 39.63 66.555 39.19 67.391 39.19C68.271 39.19 69.371 39.696 69.547 40.95H65.103ZM77.7707 41.566C77.7707 40.004 78.5847 39.476 79.6627 39.476C80.6967 39.476 81.4447 40.136 81.4447 41.522V47H84.5027V40.862C84.5027 37.936 83.0507 36.506 80.7407 36.506C79.5087 36.506 78.3207 37.188 77.7707 38.222V36.726H74.7127V47H77.7707V41.566ZM94.5426 41.83C94.5426 43.326 93.4646 44.316 92.1666 44.316C90.8686 44.316 89.7906 43.348 89.7906 41.83C89.7906 40.334 90.8466 39.388 92.1666 39.388C93.3986 39.388 94.5426 40.312 94.5426 41.83ZM97.6446 47V31.138H94.6086V37.98C94.1026 37.034 92.8926 36.506 91.5946 36.506C88.9546 36.506 86.6226 38.596 86.6226 41.896C86.6226 45.152 88.9546 47.22 91.5946 47.22C92.8926 47.22 94.1026 46.67 94.6086 45.724V47H97.6446ZM100.451 31.138V47H103.509V31.138H100.451ZM116.04 36.726H112.784L110.496 42.556L108.23 36.726H104.974L108.934 45.944L106.47 52.038H109.704L116.04 36.726Z" fill="white"/>
<path d="M6.462 87C9.99 87 11.952 84.354 11.952 80.826C11.952 77.298 9.99 74.598 6.462 74.598H1.8V87H6.462ZM2.988 75.786H6.462C9.324 75.786 10.764 77.964 10.764 80.826C10.764 83.688 9.324 85.812 6.462 85.812H2.988V75.786ZM18.1202 87.18C19.8302 87.18 21.2522 86.316 21.9542 84.804C21.5762 84.714 21.1082 84.624 20.7482 84.534C20.2262 85.452 19.2722 85.992 18.1202 85.992C16.5722 85.992 15.2942 84.966 15.0962 83.328H22.2242C22.2422 83.166 22.2422 82.968 22.2422 82.77C22.2422 80.106 20.5142 78.414 18.1202 78.414C15.7262 78.414 13.8722 80.106 13.8722 82.77C13.8722 85.434 15.7262 87.18 18.1202 87.18ZM15.0962 82.212C15.3302 80.61 16.5362 79.602 18.1202 79.602C19.6862 79.602 20.7842 80.61 21.0182 82.212H15.0962ZM23.8018 84.588C23.8558 86.244 25.3318 87.18 26.7358 87.18C28.4818 87.18 29.8138 86.172 29.8138 84.714C29.8138 83.562 29.2738 82.644 27.6898 82.266L26.5378 81.996C25.9618 81.852 25.0978 81.546 25.2958 80.592C25.3858 79.998 26.0518 79.566 26.8618 79.566C27.5818 79.566 28.1938 79.944 28.3378 80.592H29.5078C29.2738 79.062 28.1758 78.414 26.8618 78.414C25.4938 78.414 24.3238 79.206 24.1258 80.412C23.8918 82.374 25.2238 82.914 26.2498 83.148L27.4198 83.418C28.3018 83.634 28.6258 84.156 28.6258 84.714C28.6258 85.506 27.9238 86.046 26.8438 86.046C25.4218 86.046 25.0078 85.236 24.8638 84.588H23.8018ZM33.2847 78.594H32.0967V87H33.2847V78.594ZM31.7907 75.462C31.7907 75.966 32.2047 76.326 32.7087 76.326C33.2127 76.326 33.6267 75.966 33.6267 75.462C33.6267 74.958 33.2127 74.598 32.7087 74.598C32.2047 74.598 31.7907 74.958 31.7907 75.462ZM36.8224 82.824C36.8224 80.952 38.1724 79.62 39.9184 79.62C41.6464 79.62 43.0864 80.736 43.0864 82.824C43.0864 84.912 41.4304 85.974 39.9184 85.974C38.1724 85.974 36.8224 84.75 36.8224 82.824ZM36.1744 89.106C37.0204 90.546 38.4064 91.194 39.7924 91.194C42.4384 91.194 44.2924 89.772 44.2924 85.668V78.594H43.0864V80.034C42.4564 78.972 41.1424 78.414 39.9184 78.414C37.5244 78.414 35.6164 80.16 35.6164 82.824C35.6164 85.488 37.5244 87.18 39.9184 87.18C41.1424 87.18 42.5284 86.55 43.0864 85.47C43.0864 88.908 41.7544 90.006 39.7924 90.006C38.7844 90.006 37.8304 89.538 37.2004 88.512L36.1744 89.106ZM48.4023 82.41C48.4023 80.358 49.8603 79.602 51.1923 79.602C52.4883 79.602 53.2263 80.538 53.2263 82.104V87H54.4323V82.104C54.4503 79.8 53.2623 78.414 51.1923 78.414C50.2203 78.414 48.9243 78.882 48.4023 79.98V78.594H47.1963V87H48.4023V82.41ZM58.4214 78.594H57.2334V87H58.4214V78.594ZM56.9274 75.462C56.9274 75.966 57.3414 76.326 57.8454 76.326C58.3494 76.326 58.7634 75.966 58.7634 75.462C58.7634 74.958 58.3494 74.598 57.8454 74.598C57.3414 74.598 56.9274 74.958 56.9274 75.462ZM62.5351 82.41C62.5351 80.358 63.9931 79.602 65.3251 79.602C66.6211 79.602 67.3591 80.538 67.3591 82.104V87H68.5651V82.104C68.5831 79.8 67.3951 78.414 65.3251 78.414C64.3531 78.414 63.0571 78.882 62.5351 79.98V78.594H61.3291V87H62.5351V82.41ZM71.9962 82.824C71.9962 80.952 73.3462 79.62 75.0922 79.62C76.8202 79.62 78.2602 80.736 78.2602 82.824C78.2602 84.912 76.6042 85.974 75.0922 85.974C73.3462 85.974 71.9962 84.75 71.9962 82.824ZM71.3482 89.106C72.1942 90.546 73.5802 91.194 74.9662 91.194C77.6122 91.194 79.4662 89.772 79.4662 85.668V78.594H78.2602V80.034C77.6302 78.972 76.3162 78.414 75.0922 78.414C72.6982 78.414 70.7902 80.16 70.7902 82.824C70.7902 85.488 72.6982 87.18 75.0922 87.18C76.3162 87.18 77.7022 86.55 78.2602 85.47C78.2602 88.908 76.9282 90.006 74.9662 90.006C73.9582 90.006 73.0042 89.538 72.3742 88.512L71.3482 89.106ZM88.9154 87V79.674H90.6974V78.594H88.9154V75.444H87.7094V78.594H86.1974V79.674H87.7094V87H88.9154ZM93.8945 82.41C93.8945 80.358 95.3525 79.602 96.6845 79.602C97.9805 79.602 98.7185 80.538 98.7185 82.104V87H99.9245V82.104C99.9425 79.8 98.7545 78.414 96.6845 78.414C95.7125 78.414 94.4165 78.882 93.8945 79.98V74.04H92.6885V87H93.8945V82.41ZM106.398 87.18C108.108 87.18 109.53 86.316 110.232 84.804C109.854 84.714 109.386 84.624 109.026 84.534C108.504 85.452 107.55 85.992 106.398 85.992C104.85 85.992 103.572 84.966 103.374 83.328H110.502C110.52 83.166 110.52 82.968 110.52 82.77C110.52 80.106 108.792 78.414 106.398 78.414C104.004 78.414 102.15 80.106 102.15 82.77C102.15 85.434 104.004 87.18 106.398 87.18ZM103.374 82.212C103.608 80.61 104.814 79.602 106.398 79.602C107.964 79.602 109.062 80.61 109.296 82.212H103.374ZM125.626 78.594H124.42V79.98C123.79 78.918 122.476 78.414 121.252 78.414C118.858 78.414 116.95 80.106 116.95 82.77C116.95 85.434 118.858 87.18 121.252 87.18C122.476 87.18 123.79 86.622 124.42 85.56V87H125.626V78.594ZM118.156 82.77C118.156 80.844 119.506 79.62 121.252 79.62C122.764 79.62 124.42 80.682 124.42 82.77C124.42 84.858 122.98 85.974 121.252 85.974C119.506 85.974 118.156 84.642 118.156 82.77ZM128.548 91.068H129.754V85.632C130.384 86.712 131.68 87.18 132.922 87.18C135.316 87.18 137.224 85.506 137.224 82.842C137.224 80.178 135.316 78.414 132.922 78.414C131.698 78.414 130.384 78.99 129.754 80.052V78.594H128.548V91.068ZM136.018 82.842C136.018 84.786 134.668 85.974 132.922 85.974C131.41 85.974 129.754 84.912 129.754 82.842C129.754 80.772 131.194 79.62 132.922 79.62C134.668 79.62 136.018 80.97 136.018 82.842ZM139.569 91.068H140.775V85.632C141.405 86.712 142.701 87.18 143.943 87.18C146.337 87.18 148.245 85.506 148.245 82.842C148.245 80.178 146.337 78.414 143.943 78.414C142.719 78.414 141.405 78.99 140.775 80.052V78.594H139.569V91.068ZM147.039 82.842C147.039 84.786 145.689 85.974 143.943 85.974C142.431 85.974 140.775 84.912 140.775 82.842C140.775 80.772 142.215 79.62 143.943 79.62C145.689 79.62 147.039 80.97 147.039 82.842ZM157.136 87V79.674H158.918V78.594H157.136V75.444H155.93V78.594H154.418V79.674H155.93V87H157.136ZM164.567 87.18C166.961 87.18 168.959 85.434 168.959 82.77C168.959 80.106 166.961 78.414 164.567 78.414C162.173 78.414 160.175 80.106 160.175 82.77C160.175 85.434 162.173 87.18 164.567 87.18ZM164.567 85.992C162.821 85.992 161.363 84.714 161.363 82.77C161.363 80.826 162.821 79.602 164.567 79.602C166.313 79.602 167.771 80.826 167.771 82.77C167.771 84.714 166.313 85.992 164.567 85.992ZM176.079 87H177.285V85.56C177.915 86.622 179.229 87.18 180.453 87.18C182.847 87.18 184.755 85.434 184.755 82.77C184.755 80.106 182.847 78.414 180.453 78.414C179.229 78.414 177.915 78.918 177.285 79.98V74.04H176.079V87ZM183.549 82.77C183.549 84.642 182.199 85.974 180.453 85.974C178.725 85.974 177.285 84.858 177.285 82.77C177.285 80.682 178.941 79.62 180.453 79.62C182.199 79.62 183.549 80.844 183.549 82.77ZM190.773 87.18C192.483 87.18 193.905 86.316 194.607 84.804C194.229 84.714 193.761 84.624 193.401 84.534C192.879 85.452 191.925 85.992 190.773 85.992C189.225 85.992 187.947 84.966 187.749 83.328H194.877C194.895 83.166 194.895 82.968 194.895 82.77C194.895 80.106 193.167 78.414 190.773 78.414C188.379 78.414 186.525 80.106 186.525 82.77C186.525 85.434 188.379 87.18 190.773 87.18ZM187.749 82.212C187.983 80.61 189.189 79.602 190.773 79.602C192.339 79.602 193.437 80.61 193.671 82.212H187.749ZM207.823 83.184C207.823 85.236 206.365 85.992 205.033 85.992C203.737 85.992 202.999 85.056 202.999 83.49V78.594H201.793V83.49C201.775 85.794 202.963 87.18 205.033 87.18C206.005 87.18 207.301 86.712 207.823 85.614V87H209.029V78.594H207.823V83.184ZM211.272 84.588C211.326 86.244 212.802 87.18 214.206 87.18C215.952 87.18 217.284 86.172 217.284 84.714C217.284 83.562 216.744 82.644 215.16 82.266L214.008 81.996C213.432 81.852 212.568 81.546 212.766 80.592C212.856 79.998 213.522 79.566 214.332 79.566C215.052 79.566 215.664 79.944 215.808 80.592H216.978C216.744 79.062 215.646 78.414 214.332 78.414C212.964 78.414 211.794 79.206 211.596 80.412C211.362 82.374 212.694 82.914 213.72 83.148L214.89 83.418C215.772 83.634 216.096 84.156 216.096 84.714C216.096 85.506 215.394 86.046 214.314 86.046C212.892 86.046 212.478 85.236 212.334 84.588H211.272ZM223.239 87.18C224.949 87.18 226.371 86.316 227.073 84.804C226.695 84.714 226.227 84.624 225.867 84.534C225.345 85.452 224.391 85.992 223.239 85.992C221.691 85.992 220.413 84.966 220.215 83.328H227.343C227.361 83.166 227.361 82.968 227.361 82.77C227.361 80.106 225.633 78.414 223.239 78.414C220.845 78.414 218.991 80.106 218.991 82.77C218.991 85.434 220.845 87.18 223.239 87.18ZM220.215 82.212C220.449 80.61 221.655 79.602 223.239 79.602C224.805 79.602 225.903 80.61 226.137 82.212H220.215ZM234.573 78.738C234.411 78.594 233.781 78.414 233.205 78.414C231.981 78.414 231.207 79.062 230.793 80.502V78.594H229.587V87H230.793V83.868C230.793 81.636 231.495 79.62 233.205 79.62C233.511 79.62 234.015 79.71 234.429 79.908L234.573 78.738ZM5.994 95.04H5.094C2.862 95.04 2.16 96.606 2.16 98.622V99.594H0.522V100.674H2.16V108H3.366V100.674H5.436V99.594H3.366V98.622C3.366 97.506 3.474 96.174 5.094 96.174H5.994V95.04ZM12.3678 99.738C12.2058 99.594 11.5758 99.414 10.9998 99.414C9.77583 99.414 9.00183 100.062 8.58783 101.502V99.594H7.38183V108H8.58783V104.868C8.58783 102.636 9.28983 100.62 10.9998 100.62C11.3058 100.62 11.8098 100.71 12.2238 100.908L12.3678 99.738ZM15.355 99.594H14.167V108H15.355V99.594ZM13.861 96.462C13.861 96.966 14.275 97.326 14.779 97.326C15.283 97.326 15.697 96.966 15.697 96.462C15.697 95.958 15.283 95.598 14.779 95.598C14.275 95.598 13.861 95.958 13.861 96.462ZM21.9347 108.18C23.6447 108.18 25.0667 107.316 25.7687 105.804C25.3907 105.714 24.9227 105.624 24.5627 105.534C24.0407 106.452 23.0867 106.992 21.9347 106.992C20.3867 106.992 19.1087 105.966 18.9107 104.328H26.0387C26.0567 104.166 26.0567 103.968 26.0567 103.77C26.0567 101.106 24.3287 99.414 21.9347 99.414C19.5407 99.414 17.6867 101.106 17.6867 103.77C17.6867 106.434 19.5407 108.18 21.9347 108.18ZM18.9107 103.212C19.1447 101.61 20.3507 100.602 21.9347 100.602C23.5007 100.602 24.5987 101.61 24.8327 103.212H18.9107ZM29.4882 103.41C29.4882 101.358 30.9462 100.602 32.2782 100.602C33.5742 100.602 34.3122 101.538 34.3122 103.104V108H35.5182V103.104C35.5362 100.8 34.3482 99.414 32.2782 99.414C31.3062 99.414 30.0102 99.882 29.4882 100.98V99.594H28.2822V108H29.4882V103.41ZM46.4193 95.04H45.2133V100.98C44.5833 99.918 43.2693 99.414 42.0453 99.414C39.6513 99.414 37.7433 101.106 37.7433 103.77C37.7433 106.434 39.6513 108.18 42.0453 108.18C43.2693 108.18 44.5833 107.622 45.2133 106.56V108H46.4193V95.04ZM38.9493 103.77C38.9493 101.844 40.2993 100.62 42.0453 100.62C43.5573 100.62 45.2133 101.682 45.2133 103.77C45.2133 105.858 43.7733 106.974 42.0453 106.974C40.2993 106.974 38.9493 105.642 38.9493 103.77ZM50.5288 95.04H49.3408V108H50.5288V95.04ZM55.4345 112.068L60.6545 99.594H59.3765L56.5145 106.434L53.6705 99.594H52.4105L55.8665 107.982L54.1925 112.068H55.4345Z" fill="white"/>
<path d="M1062.89 210.746H1066.98V223H1070.23V210.746H1074.33V207.842H1062.89V210.746ZM1077.99 219.414C1077.99 216.686 1078.79 215.322 1080.55 215.322C1081.05 215.322 1081.56 215.366 1082.11 215.63L1082.66 212.88C1082.15 212.638 1081.62 212.506 1080.9 212.506C1079.84 212.506 1078.52 213.298 1077.99 215.212V212.726H1074.94V223H1077.99V219.414ZM1091.68 223H1094.71V212.726H1091.68V213.87C1090.84 212.748 1089.37 212.506 1088.69 212.506C1086.07 212.506 1083.45 214.574 1083.45 217.852C1083.45 221.13 1086.07 223.198 1088.69 223.198C1089.46 223.198 1091.04 222.802 1091.68 221.834V223ZM1086.62 217.852C1086.62 216.378 1087.89 215.41 1089.19 215.41C1090.45 215.41 1091.68 216.334 1091.68 217.852C1091.68 219.392 1090.45 220.294 1089.19 220.294C1087.89 220.294 1086.62 219.326 1086.62 217.852ZM1096.92 217.83C1096.92 221.064 1099.58 223.22 1102.51 223.22C1104.36 223.22 1106.01 222.428 1106.97 221.02L1104.49 219.26C1104.07 219.942 1103.3 220.294 1102.51 220.294C1101.21 220.294 1099.96 219.304 1099.96 217.83C1099.96 216.356 1101.21 215.432 1102.51 215.432C1103.3 215.432 1104.07 215.784 1104.49 216.466L1106.97 214.684C1105.98 213.276 1104.36 212.506 1102.51 212.506C1099.58 212.506 1096.92 214.574 1096.92 217.83ZM1112.13 218.93L1115.56 223H1119.33L1114.2 217.258L1118.47 212.726H1114.57L1112.13 215.542V207.138H1109.1V223H1112.13V218.93ZM1127.23 219.612C1126.72 220.294 1125.84 220.58 1124.98 220.58C1123.88 220.58 1122.63 220.052 1122.45 218.864H1129.98C1130 218.6 1130.02 218.182 1130.02 217.918C1130.02 214.684 1127.69 212.506 1124.76 212.506C1121.84 212.506 1119.39 214.574 1119.39 217.83C1119.39 221.064 1121.84 223.22 1124.76 223.22C1126.52 223.22 1128.39 222.67 1129.45 221.13L1127.23 219.612ZM1122.5 216.95C1122.74 215.63 1123.95 215.19 1124.78 215.19C1125.66 215.19 1126.76 215.696 1126.94 216.95H1122.5ZM1135.16 219.414C1135.16 216.686 1135.96 215.322 1137.72 215.322C1138.22 215.322 1138.73 215.366 1139.28 215.63L1139.83 212.88C1139.32 212.638 1138.79 212.506 1138.07 212.506C1137.01 212.506 1135.69 213.298 1135.16 215.212V212.726H1132.11V223H1135.16V219.414Z" fill="white"/>
<path d="M838.178 255.598V256.786H842.156V268H843.344V256.786H847.322V255.598H838.178ZM852.45 259.738C852.288 259.594 851.658 259.414 851.082 259.414C849.858 259.414 849.084 260.062 848.67 261.502V259.594H847.464V268H848.67V264.868C848.67 262.636 849.372 260.62 851.082 260.62C851.388 260.62 851.892 260.71 852.306 260.908L852.45 259.738ZM862.103 259.594H860.897V260.98C860.267 259.918 858.953 259.414 857.729 259.414C855.335 259.414 853.427 261.106 853.427 263.77C853.427 266.434 855.335 268.18 857.729 268.18C858.953 268.18 860.267 267.622 860.897 266.56V268H862.103V259.594ZM854.633 263.77C854.633 261.844 855.983 260.62 857.729 260.62C859.241 260.62 860.897 261.682 860.897 263.77C860.897 265.858 859.457 266.974 857.729 266.974C855.983 266.974 854.633 265.642 854.633 263.77ZM871.018 266.182C870.424 266.722 869.686 266.992 868.84 266.992C867.094 266.992 865.636 265.714 865.636 263.77C865.636 261.826 867.094 260.602 868.84 260.602C869.686 260.602 870.442 260.89 871.018 261.394L871.864 260.548C871.072 259.828 870.01 259.414 868.84 259.414C866.446 259.414 864.448 261.106 864.448 263.77C864.448 266.434 866.446 268.18 868.84 268.18C870.01 268.18 871.09 267.766 871.882 267.028L871.018 266.182ZM875.283 263.41L879.621 268H881.259L876.705 263.194L880.305 259.594H878.613L875.283 262.924V255.04H874.095V268H875.283V263.41ZM889.376 268V260.674H891.158V259.594H889.376V256.444H888.17V259.594H886.658V260.674H888.17V268H889.376ZM894.355 263.41C894.355 261.358 895.813 260.602 897.145 260.602C898.441 260.602 899.179 261.538 899.179 263.104V268H900.385V263.104C900.403 260.8 899.215 259.414 897.145 259.414C896.173 259.414 894.877 259.882 894.355 260.98V255.04H893.149V268H894.355V263.41ZM906.859 268.18C908.569 268.18 909.991 267.316 910.693 265.804C910.315 265.714 909.847 265.624 909.487 265.534C908.965 266.452 908.011 266.992 906.859 266.992C905.311 266.992 904.033 265.966 903.835 264.328H910.963C910.981 264.166 910.981 263.968 910.981 263.77C910.981 261.106 909.253 259.414 906.859 259.414C904.465 259.414 902.611 261.106 902.611 263.77C902.611 266.434 904.465 268.18 906.859 268.18ZM903.835 263.212C904.069 261.61 905.275 260.602 906.859 260.602C908.425 260.602 909.523 261.61 909.757 263.212H903.835ZM919.175 259.594H917.987V268H919.175V259.594ZM917.681 256.462C917.681 256.966 918.095 257.326 918.599 257.326C919.103 257.326 919.517 256.966 919.517 256.462C919.517 255.958 919.103 255.598 918.599 255.598C918.095 255.598 917.681 255.958 917.681 256.462ZM923.289 263.41C923.289 261.358 924.747 260.602 926.079 260.602C927.375 260.602 928.113 261.538 928.113 263.104V268H929.319V263.104C929.337 260.8 928.149 259.414 926.079 259.414C925.107 259.414 923.811 259.882 923.289 260.98V259.594H922.083V268H923.289V263.41ZM935.686 255.04C933.454 255.04 932.752 256.606 932.752 258.622V259.594H931.114V260.674H932.752V268H933.958V260.674H936.028V259.594H933.958V258.622C933.958 257.506 934.066 256.174 935.686 256.174H938.458V268H939.646V255.04H935.686ZM946.378 268.18C948.772 268.18 950.77 266.434 950.77 263.77C950.77 261.106 948.772 259.414 946.378 259.414C943.984 259.414 941.986 261.106 941.986 263.77C941.986 266.434 943.984 268.18 946.378 268.18ZM946.378 266.992C944.632 266.992 943.174 265.714 943.174 263.77C943.174 261.826 944.632 260.602 946.378 260.602C948.124 260.602 949.582 261.826 949.582 263.77C949.582 265.714 948.124 266.992 946.378 266.992ZM962.486 268L965.636 259.594H964.358L961.946 266.092L959.516 259.594H958.22L955.808 266.092L953.378 259.594H952.1L955.34 268H956.348L958.868 261.25L961.478 268H962.486ZM966.709 270.376C967.429 269.782 968.257 268.414 968.401 266.326H967.015C967.069 268 966.529 269.206 965.881 270.124L966.709 270.376ZM975.135 268.18C977.529 268.18 979.527 266.434 979.527 263.77C979.527 261.106 977.529 259.414 975.135 259.414C972.741 259.414 970.743 261.106 970.743 263.77C970.743 266.434 972.741 268.18 975.135 268.18ZM975.135 266.992C973.389 266.992 971.931 265.714 971.931 263.77C971.931 261.826 973.389 260.602 975.135 260.602C976.881 260.602 978.339 261.826 978.339 263.77C978.339 265.714 976.881 266.992 975.135 266.992ZM987.788 264.184C987.788 266.236 986.33 266.992 984.998 266.992C983.702 266.992 982.964 266.056 982.964 264.49V259.594H981.758V264.49C981.74 266.794 982.928 268.18 984.998 268.18C985.97 268.18 987.266 267.712 987.788 266.614V268H988.994V259.594H987.788V264.184ZM993.667 268V260.674H995.449V259.594H993.667V256.444H992.461V259.594H990.949V260.674H992.461V268H993.667ZM1001.08 255.04C998.844 255.04 998.142 256.606 998.142 258.622V259.594H996.504V260.674H998.142V268H999.348V260.674H1001.42V259.594H999.348V258.622C999.348 257.506 999.456 256.174 1001.08 256.174H1003.85V268H1005.04V255.04H1001.08ZM1011.77 268.18C1014.16 268.18 1016.16 266.434 1016.16 263.77C1016.16 261.106 1014.16 259.414 1011.77 259.414C1009.37 259.414 1007.38 261.106 1007.38 263.77C1007.38 266.434 1009.37 268.18 1011.77 268.18ZM1011.77 266.992C1010.02 266.992 1008.56 265.714 1008.56 263.77C1008.56 261.826 1010.02 260.602 1011.77 260.602C1013.51 260.602 1014.97 261.826 1014.97 263.77C1014.97 265.714 1013.51 266.992 1011.77 266.992ZM1027.88 268L1031.03 259.594H1029.75L1027.34 266.092L1024.91 259.594H1023.61L1021.2 266.092L1018.77 259.594H1017.49L1020.73 268H1021.74L1024.26 261.25L1026.87 268H1027.88ZM1045.41 259.594H1044.2V260.98C1043.57 259.918 1042.26 259.414 1041.03 259.414C1038.64 259.414 1036.73 261.106 1036.73 263.77C1036.73 266.434 1038.64 268.18 1041.03 268.18C1042.26 268.18 1043.57 267.622 1044.2 266.56V268H1045.41V259.594ZM1037.94 263.77C1037.94 261.844 1039.29 260.62 1041.03 260.62C1042.55 260.62 1044.2 261.682 1044.2 263.77C1044.2 265.858 1042.76 266.974 1041.03 266.974C1039.29 266.974 1037.94 265.642 1037.94 263.77ZM1049.54 263.41C1049.54 261.358 1050.99 260.602 1052.33 260.602C1053.62 260.602 1054.36 261.538 1054.36 263.104V268H1055.57V263.104C1055.58 260.8 1054.4 259.414 1052.33 259.414C1051.35 259.414 1050.06 259.882 1049.54 260.98V259.594H1048.33V268H1049.54V263.41ZM1066.47 255.04H1065.26V260.98C1064.63 259.918 1063.32 259.414 1062.09 259.414C1059.7 259.414 1057.79 261.106 1057.79 263.77C1057.79 266.434 1059.7 268.18 1062.09 268.18C1063.32 268.18 1064.63 267.622 1065.26 266.56V268H1066.47V255.04ZM1059 263.77C1059 261.844 1060.35 260.62 1062.09 260.62C1063.6 260.62 1065.26 261.682 1065.26 263.77C1065.26 265.858 1063.82 266.974 1062.09 266.974C1060.35 266.974 1059 265.642 1059 263.77ZM1077.84 268.18C1079.55 268.18 1080.97 267.316 1081.67 265.804C1081.3 265.714 1080.83 265.624 1080.47 265.534C1079.95 266.452 1078.99 266.992 1077.84 266.992C1076.29 266.992 1075.01 265.966 1074.82 264.328H1081.94C1081.96 264.166 1081.96 263.968 1081.96 263.77C1081.96 261.106 1080.23 259.414 1077.84 259.414C1075.45 259.414 1073.59 261.106 1073.59 263.77C1073.59 266.434 1075.45 268.18 1077.84 268.18ZM1074.82 263.212C1075.05 261.61 1076.26 260.602 1077.84 260.602C1079.41 260.602 1080.5 261.61 1080.74 263.212H1074.82ZM1083.45 259.594L1086.19 263.374L1082.84 268H1084.28L1086.91 264.382L1089.54 268H1091L1087.65 263.374L1090.38 259.594H1088.91L1086.91 262.366L1084.93 259.594H1083.45ZM1092.73 272.068H1093.94V266.632C1094.57 267.712 1095.86 268.18 1097.11 268.18C1099.5 268.18 1101.41 266.506 1101.41 263.842C1101.41 261.178 1099.5 259.414 1097.11 259.414C1095.88 259.414 1094.57 259.99 1093.94 261.052V259.594H1092.73V272.068ZM1100.2 263.842C1100.2 265.786 1098.85 266.974 1097.11 266.974C1095.59 266.974 1093.94 265.912 1093.94 263.842C1093.94 261.772 1095.38 260.62 1097.11 260.62C1098.85 260.62 1100.2 261.97 1100.2 263.842ZM1107.42 268.18C1109.13 268.18 1110.56 267.316 1111.26 265.804C1110.88 265.714 1110.41 265.624 1110.05 265.534C1109.53 266.452 1108.58 266.992 1107.42 266.992C1105.88 266.992 1104.6 265.966 1104.4 264.328H1111.53C1111.55 264.166 1111.55 263.968 1111.55 263.77C1111.55 261.106 1109.82 259.414 1107.42 259.414C1105.03 259.414 1103.18 261.106 1103.18 263.77C1103.18 266.434 1105.03 268.18 1107.42 268.18ZM1104.4 263.212C1104.63 261.61 1105.84 260.602 1107.42 260.602C1108.99 260.602 1110.09 261.61 1110.32 263.212H1104.4ZM1114.98 263.41C1114.98 261.358 1116.44 260.602 1117.77 260.602C1119.06 260.602 1119.8 261.538 1119.8 263.104V268H1121.01V263.104C1121.03 260.8 1119.84 259.414 1117.77 259.414C1116.8 259.414 1115.5 259.882 1114.98 260.98V259.594H1113.77V268H1114.98V263.41ZM1123.14 265.588C1123.2 267.244 1124.67 268.18 1126.08 268.18C1127.82 268.18 1129.16 267.172 1129.16 265.714C1129.16 264.562 1128.62 263.644 1127.03 263.266L1125.88 262.996C1125.3 262.852 1124.44 262.546 1124.64 261.592C1124.73 260.998 1125.39 260.566 1126.2 260.566C1126.92 260.566 1127.54 260.944 1127.68 261.592H1128.85C1128.62 260.062 1127.52 259.414 1126.2 259.414C1124.84 259.414 1123.67 260.206 1123.47 261.412C1123.23 263.374 1124.57 263.914 1125.59 264.148L1126.76 264.418C1127.64 264.634 1127.97 265.156 1127.97 265.714C1127.97 266.506 1127.27 267.046 1126.19 267.046C1124.76 267.046 1124.35 266.236 1124.21 265.588H1123.14ZM1135.11 268.18C1136.82 268.18 1138.24 267.316 1138.94 265.804C1138.57 265.714 1138.1 265.624 1137.74 265.534C1137.22 266.452 1136.26 266.992 1135.11 266.992C1133.56 266.992 1132.28 265.966 1132.09 264.328H1139.21C1139.23 264.166 1139.23 263.968 1139.23 263.77C1139.23 261.106 1137.5 259.414 1135.11 259.414C1132.72 259.414 1130.86 261.106 1130.86 263.77C1130.86 266.434 1132.72 268.18 1135.11 268.18ZM1132.09 263.212C1132.32 261.61 1133.53 260.602 1135.11 260.602C1136.68 260.602 1137.77 261.61 1138.01 263.212H1132.09ZM924.668 286.04H923.768C921.536 286.04 920.834 287.606 920.834 289.622V290.594H919.196V291.674H920.834V299H922.04V291.674H924.11V290.594H922.04V289.622C922.04 288.506 922.148 287.174 923.768 287.174H924.668V286.04ZM929.713 299.18C932.107 299.18 934.105 297.434 934.105 294.77C934.105 292.106 932.107 290.414 929.713 290.414C927.319 290.414 925.321 292.106 925.321 294.77C925.321 297.434 927.319 299.18 929.713 299.18ZM929.713 297.992C927.967 297.992 926.509 296.714 926.509 294.77C926.509 292.826 927.967 291.602 929.713 291.602C931.459 291.602 932.917 292.826 932.917 294.77C932.917 296.714 931.459 297.992 929.713 297.992ZM941.43 290.738C941.268 290.594 940.638 290.414 940.062 290.414C938.838 290.414 938.064 291.062 937.65 292.502V290.594H936.444V299H937.65V295.868C937.65 293.636 938.352 291.62 940.062 291.62C940.368 291.62 940.872 291.71 941.286 291.908L941.43 290.738ZM949.335 299V291.674H951.117V290.594H949.335V287.444H948.129V290.594H946.617V291.674H948.129V299H949.335ZM954.314 294.41C954.314 292.358 955.772 291.602 957.104 291.602C958.4 291.602 959.138 292.538 959.138 294.104V299H960.344V294.104C960.362 291.8 959.174 290.414 957.104 290.414C956.132 290.414 954.836 290.882 954.314 291.98V286.04H953.108V299H954.314V294.41ZM966.818 299.18C968.528 299.18 969.95 298.316 970.652 296.804C970.274 296.714 969.806 296.624 969.446 296.534C968.924 297.452 967.97 297.992 966.818 297.992C965.27 297.992 963.992 296.966 963.794 295.328H970.922C970.939 295.166 970.939 294.968 970.939 294.77C970.939 292.106 969.212 290.414 966.818 290.414C964.424 290.414 962.57 292.106 962.57 294.77C962.57 297.434 964.424 299.18 966.818 299.18ZM963.794 294.212C964.028 292.61 965.234 291.602 966.818 291.602C968.384 291.602 969.482 292.61 969.716 294.212H963.794ZM983.868 295.184C983.868 297.236 982.41 297.992 981.078 297.992C979.782 297.992 979.044 297.056 979.044 295.49V290.594H977.838V295.49C977.82 297.794 979.008 299.18 981.078 299.18C982.05 299.18 983.346 298.712 983.868 297.614V299H985.074V290.594H983.868V295.184ZM987.317 296.588C987.371 298.244 988.847 299.18 990.251 299.18C991.997 299.18 993.329 298.172 993.329 296.714C993.329 295.562 992.789 294.644 991.205 294.266L990.053 293.996C989.477 293.852 988.613 293.546 988.811 292.592C988.901 291.998 989.567 291.566 990.377 291.566C991.097 291.566 991.709 291.944 991.853 292.592H993.023C992.789 291.062 991.691 290.414 990.377 290.414C989.009 290.414 987.839 291.206 987.641 292.412C987.407 294.374 988.739 294.914 989.765 295.148L990.935 295.418C991.817 295.634 992.141 296.156 992.141 296.714C992.141 297.506 991.439 298.046 990.359 298.046C988.937 298.046 988.523 297.236 988.379 296.588H987.317ZM999.284 299.18C1000.99 299.18 1002.42 298.316 1003.12 296.804C1002.74 296.714 1002.27 296.624 1001.91 296.534C1001.39 297.452 1000.44 297.992 999.284 297.992C997.736 297.992 996.458 296.966 996.26 295.328H1003.39C1003.41 295.166 1003.41 294.968 1003.41 294.77C1003.41 292.106 1001.68 290.414 999.284 290.414C996.89 290.414 995.036 292.106 995.036 294.77C995.036 297.434 996.89 299.18 999.284 299.18ZM996.26 294.212C996.494 292.61 997.7 291.602 999.284 291.602C1000.85 291.602 1001.95 292.61 1002.18 294.212H996.26ZM1010.62 290.738C1010.46 290.594 1009.83 290.414 1009.25 290.414C1008.03 290.414 1007.25 291.062 1006.84 292.502V290.594H1005.63V299H1006.84V295.868C1006.84 293.636 1007.54 291.62 1009.25 291.62C1009.56 291.62 1010.06 291.71 1010.47 291.908L1010.62 290.738ZM1017.95 290.594H1016.76V299H1017.95V290.594ZM1016.45 287.462C1016.45 287.966 1016.87 288.326 1017.37 288.326C1017.87 288.326 1018.29 287.966 1018.29 287.462C1018.29 286.958 1017.87 286.598 1017.37 286.598C1016.87 286.598 1016.45 286.958 1016.45 287.462ZM1022.06 294.41C1022.06 292.358 1023.52 291.602 1024.85 291.602C1026.15 291.602 1026.88 292.538 1026.88 294.104V299H1028.09V294.104C1028.11 291.8 1026.92 290.414 1024.85 290.414C1023.88 290.414 1022.58 290.882 1022.06 291.98V290.594H1020.85V299H1022.06V294.41ZM1037.44 299V291.674H1039.22V290.594H1037.44V287.444H1036.23V290.594H1034.72V291.674H1036.23V299H1037.44ZM1042.42 294.41C1042.42 292.358 1043.87 291.602 1045.21 291.602C1046.5 291.602 1047.24 292.538 1047.24 294.104V299H1048.45V294.104C1048.46 291.8 1047.28 290.414 1045.21 290.414C1044.23 290.414 1042.94 290.882 1042.42 291.98V286.04H1041.21V299H1042.42V294.41ZM1054.92 299.18C1056.63 299.18 1058.05 298.316 1058.75 296.804C1058.38 296.714 1057.91 296.624 1057.55 296.534C1057.03 297.452 1056.07 297.992 1054.92 297.992C1053.37 297.992 1052.09 296.966 1051.9 295.328H1059.02C1059.04 295.166 1059.04 294.968 1059.04 294.77C1059.04 292.106 1057.31 290.414 1054.92 290.414C1052.53 290.414 1050.67 292.106 1050.67 294.77C1050.67 297.434 1052.53 299.18 1054.92 299.18ZM1051.9 294.212C1052.13 292.61 1053.34 291.602 1054.92 291.602C1056.49 291.602 1057.58 292.61 1057.82 294.212H1051.9ZM1066.05 303.068H1067.25V297.632C1067.88 298.712 1069.18 299.18 1070.42 299.18C1072.82 299.18 1074.72 297.506 1074.72 294.842C1074.72 292.178 1072.82 290.414 1070.42 290.414C1069.2 290.414 1067.88 290.99 1067.25 292.052V290.594H1066.05V303.068ZM1073.52 294.842C1073.52 296.786 1072.17 297.974 1070.42 297.974C1068.91 297.974 1067.25 296.912 1067.25 294.842C1067.25 292.772 1068.69 291.62 1070.42 291.62C1072.17 291.62 1073.52 292.97 1073.52 294.842ZM1078.26 286.04H1077.07V299H1078.26V286.04ZM1089.27 290.594H1088.06V291.98C1087.43 290.918 1086.12 290.414 1084.89 290.414C1082.5 290.414 1080.59 292.106 1080.59 294.77C1080.59 297.434 1082.5 299.18 1084.89 299.18C1086.12 299.18 1087.43 298.622 1088.06 297.56V299H1089.27V290.594ZM1081.8 294.77C1081.8 292.844 1083.15 291.62 1084.89 291.62C1086.4 291.62 1088.06 292.682 1088.06 294.77C1088.06 296.858 1086.62 297.974 1084.89 297.974C1083.15 297.974 1081.8 296.642 1081.8 294.77ZM1093.95 299V291.674H1095.73V290.594H1093.95V287.444H1092.74V290.594H1091.23V291.674H1092.74V299H1093.95ZM1102.26 286.04H1101.36C1099.13 286.04 1098.43 287.606 1098.43 289.622V290.594H1096.79V291.674H1098.43V299H1099.63V291.674H1101.7V290.594H1099.63V289.622C1099.63 288.506 1099.74 287.174 1101.36 287.174H1102.26V286.04ZM1107.31 299.18C1109.7 299.18 1111.7 297.434 1111.7 294.77C1111.7 292.106 1109.7 290.414 1107.31 290.414C1104.91 290.414 1102.91 292.106 1102.91 294.77C1102.91 297.434 1104.91 299.18 1107.31 299.18ZM1107.31 297.992C1105.56 297.992 1104.1 296.714 1104.1 294.77C1104.1 292.826 1105.56 291.602 1107.31 291.602C1109.05 291.602 1110.51 292.826 1110.51 294.77C1110.51 296.714 1109.05 297.992 1107.31 297.992ZM1119.02 290.738C1118.86 290.594 1118.23 290.414 1117.65 290.414C1116.43 290.414 1115.66 291.062 1115.24 292.502V290.594H1114.04V299H1115.24V295.868C1115.24 293.636 1115.94 291.62 1117.65 291.62C1117.96 291.62 1118.46 291.71 1118.88 291.908L1119.02 290.738ZM1128.06 294.41C1128.06 292.358 1129.52 291.602 1130.85 291.602C1132.14 291.602 1132.88 292.538 1132.88 294.104V299H1134.09V294.104C1134.11 291.8 1132.92 290.414 1130.85 290.414C1130 290.414 1128.51 290.666 1127.73 292.25C1127.25 291.08 1126.26 290.414 1124.82 290.414C1124.04 290.414 1122.55 290.882 1122.03 291.98V290.594H1120.82V299H1122.03V294.41C1122.03 292.358 1123.49 291.602 1124.82 291.602C1126.11 291.602 1126.85 292.538 1126.85 294.104V299H1128.06V294.41ZM1136.73 298.244C1136.73 298.802 1137.16 299.18 1137.72 299.18C1138.27 299.18 1138.71 298.802 1138.71 298.244C1138.71 297.686 1138.27 297.308 1137.72 297.308C1137.16 297.308 1136.73 297.686 1136.73 298.244Z" fill="white"/>
<path d="M838.379 59.48C837.461 60.416 836.219 60.992 834.779 60.992C831.917 60.992 829.955 58.688 829.955 55.826C829.955 52.946 831.917 50.642 834.779 50.642C836.219 50.642 837.443 51.218 838.361 52.136L839.189 51.308C838.055 50.156 836.525 49.454 834.779 49.454C831.269 49.454 828.767 52.316 828.767 55.826C828.767 59.354 831.269 62.18 834.779 62.18C836.525 62.18 838.073 61.478 839.207 60.326L838.379 59.48ZM846.192 53.738C846.03 53.594 845.4 53.414 844.824 53.414C843.6 53.414 842.826 54.062 842.412 55.502V53.594H841.206V62H842.412V58.868C842.412 56.636 843.114 54.62 844.824 54.62C845.13 54.62 845.634 54.71 846.048 54.908L846.192 53.738ZM851.417 62.18C853.127 62.18 854.549 61.316 855.251 59.804C854.873 59.714 854.405 59.624 854.045 59.534C853.523 60.452 852.569 60.992 851.417 60.992C849.869 60.992 848.591 59.966 848.393 58.328H855.521C855.539 58.166 855.539 57.968 855.539 57.77C855.539 55.106 853.811 53.414 851.417 53.414C849.023 53.414 847.169 55.106 847.169 57.77C847.169 60.434 849.023 62.18 851.417 62.18ZM848.393 57.212C848.627 55.61 849.833 54.602 851.417 54.602C852.983 54.602 854.081 55.61 854.315 57.212H848.393ZM865.865 53.594H864.659V54.98C864.029 53.918 862.715 53.414 861.491 53.414C859.097 53.414 857.189 55.106 857.189 57.77C857.189 60.434 859.097 62.18 861.491 62.18C862.715 62.18 864.029 61.622 864.659 60.56V62H865.865V53.594ZM858.395 57.77C858.395 55.844 859.745 54.62 861.491 54.62C863.003 54.62 864.659 55.682 864.659 57.77C864.659 59.858 863.219 60.974 861.491 60.974C859.745 60.974 858.395 59.642 858.395 57.77ZM870.55 62V54.674H872.332V53.594H870.55V50.444H869.344V53.594H867.832V54.674H869.344V62H870.55ZM875.511 53.594H874.323V62H875.511V53.594ZM874.017 50.462C874.017 50.966 874.431 51.326 874.935 51.326C875.439 51.326 875.853 50.966 875.853 50.462C875.853 49.958 875.439 49.598 874.935 49.598C874.431 49.598 874.017 49.958 874.017 50.462ZM879.625 57.41C879.625 55.358 881.083 54.602 882.415 54.602C883.711 54.602 884.449 55.538 884.449 57.104V62H885.655V57.104C885.673 54.8 884.485 53.414 882.415 53.414C881.443 53.414 880.147 53.882 879.625 54.98V53.594H878.419V62H879.625V57.41ZM889.086 57.824C889.086 55.952 890.436 54.62 892.182 54.62C893.91 54.62 895.35 55.736 895.35 57.824C895.35 59.912 893.694 60.974 892.182 60.974C890.436 60.974 889.086 59.75 889.086 57.824ZM888.438 64.106C889.284 65.546 890.67 66.194 892.056 66.194C894.702 66.194 896.556 64.772 896.556 60.668V53.594H895.35V55.034C894.72 53.972 893.406 53.414 892.182 53.414C889.788 53.414 887.88 55.16 887.88 57.824C887.88 60.488 889.788 62.18 892.182 62.18C893.406 62.18 894.792 61.55 895.35 60.47C895.35 63.908 894.018 65.006 892.056 65.006C891.048 65.006 890.094 64.538 889.464 63.512L888.438 64.106ZM912.341 53.594H911.135V54.98C910.505 53.918 909.191 53.414 907.967 53.414C905.573 53.414 903.665 55.106 903.665 57.77C903.665 60.434 905.573 62.18 907.967 62.18C909.191 62.18 910.505 61.622 911.135 60.56V62H912.341V53.594ZM904.871 57.77C904.871 55.844 906.221 54.62 907.967 54.62C909.479 54.62 911.135 55.682 911.135 57.77C911.135 59.858 909.695 60.974 907.967 60.974C906.221 60.974 904.871 59.642 904.871 57.77ZM916.469 57.41C916.469 55.358 917.927 54.602 919.259 54.602C920.555 54.602 921.293 55.538 921.293 57.104V62H922.499V57.104C922.517 54.8 921.329 53.414 919.259 53.414C918.287 53.414 916.991 53.882 916.469 54.98V53.594H915.263V62H916.469V57.41ZM931.269 53.594H930.081V62H931.269V53.594ZM929.775 50.462C929.775 50.966 930.189 51.326 930.693 51.326C931.197 51.326 931.611 50.966 931.611 50.462C931.611 49.958 931.197 49.598 930.693 49.598C930.189 49.598 929.775 49.958 929.775 50.462ZM935.383 57.41C935.383 55.358 936.841 54.602 938.173 54.602C939.469 54.602 940.207 55.538 940.207 57.104V62H941.413V57.104C941.431 54.8 940.243 53.414 938.173 53.414C937.201 53.414 935.905 53.882 935.383 54.98V53.594H934.177V62H935.383V57.41ZM945.978 62V54.674H947.76V53.594H945.978V50.444H944.772V53.594H943.26V54.674H944.772V62H945.978ZM953.265 62.18C954.975 62.18 956.397 61.316 957.099 59.804C956.721 59.714 956.253 59.624 955.893 59.534C955.371 60.452 954.417 60.992 953.265 60.992C951.717 60.992 950.439 59.966 950.241 58.328H957.369C957.387 58.166 957.387 57.968 957.387 57.77C957.387 55.106 955.659 53.414 953.265 53.414C950.871 53.414 949.017 55.106 949.017 57.77C949.017 60.434 950.871 62.18 953.265 62.18ZM950.241 57.212C950.475 55.61 951.681 54.602 953.265 54.602C954.831 54.602 955.929 55.61 956.163 57.212H950.241ZM964.598 53.738C964.436 53.594 963.806 53.414 963.23 53.414C962.006 53.414 961.232 54.062 960.818 55.502V53.594H959.612V62H960.818V58.868C960.818 56.636 961.52 54.62 963.23 54.62C963.536 54.62 964.04 54.71 964.454 54.908L964.598 53.738ZM974.251 53.594H973.045V54.98C972.415 53.918 971.101 53.414 969.877 53.414C967.483 53.414 965.575 55.106 965.575 57.77C965.575 60.434 967.483 62.18 969.877 62.18C971.101 62.18 972.415 61.622 973.045 60.56V62H974.251V53.594ZM966.781 57.77C966.781 55.844 968.131 54.62 969.877 54.62C971.389 54.62 973.045 55.682 973.045 57.77C973.045 59.858 971.605 60.974 969.877 60.974C968.131 60.974 966.781 59.642 966.781 57.77ZM983.167 60.182C982.573 60.722 981.835 60.992 980.989 60.992C979.243 60.992 977.785 59.714 977.785 57.77C977.785 55.826 979.243 54.602 980.989 54.602C981.835 54.602 982.591 54.89 983.167 55.394L984.013 54.548C983.221 53.828 982.159 53.414 980.989 53.414C978.595 53.414 976.597 55.106 976.597 57.77C976.597 60.434 978.595 62.18 980.989 62.18C982.159 62.18 983.239 61.766 984.031 61.028L983.167 60.182ZM988.007 62V54.674H989.789V53.594H988.007V50.444H986.801V53.594H985.289V54.674H986.801V62H988.007ZM992.968 53.594H991.78V62H992.968V53.594ZM991.474 50.462C991.474 50.966 991.888 51.326 992.392 51.326C992.896 51.326 993.31 50.966 993.31 50.462C993.31 49.958 992.896 49.598 992.392 49.598C991.888 49.598 991.474 49.958 991.474 50.462ZM994.85 53.594L998.324 62H999.62H999.602L1003.09 53.594H1001.82L998.972 60.596L996.11 53.594H994.85ZM1008.42 62.18C1010.13 62.18 1011.56 61.316 1012.26 59.804C1011.88 59.714 1011.41 59.624 1011.05 59.534C1010.53 60.452 1009.58 60.992 1008.42 60.992C1006.88 60.992 1005.6 59.966 1005.4 58.328H1012.53C1012.55 58.166 1012.55 57.968 1012.55 57.77C1012.55 55.106 1010.82 53.414 1008.42 53.414C1006.03 53.414 1004.18 55.106 1004.18 57.77C1004.18 60.434 1006.03 62.18 1008.42 62.18ZM1005.4 57.212C1005.63 55.61 1006.84 54.602 1008.42 54.602C1009.99 54.602 1011.09 55.61 1011.32 57.212H1005.4ZM1014.56 64.376C1015.28 63.782 1016.1 62.414 1016.25 60.326H1014.86C1014.92 62 1014.38 63.206 1013.73 64.124L1014.56 64.376ZM1032.05 49.04H1030.84V54.98C1030.21 53.918 1028.9 53.414 1027.67 53.414C1025.28 53.414 1023.37 55.106 1023.37 57.77C1023.37 60.434 1025.28 62.18 1027.67 62.18C1028.9 62.18 1030.21 61.622 1030.84 60.56V62H1032.05V49.04ZM1024.58 57.77C1024.58 55.844 1025.93 54.62 1027.67 54.62C1029.19 54.62 1030.84 55.682 1030.84 57.77C1030.84 59.858 1029.4 60.974 1027.67 60.974C1025.93 60.974 1024.58 59.642 1024.58 57.77ZM1038.64 62.18C1040.35 62.18 1041.77 61.316 1042.48 59.804C1042.1 59.714 1041.63 59.624 1041.27 59.534C1040.75 60.452 1039.79 60.992 1038.64 60.992C1037.09 60.992 1035.82 59.966 1035.62 58.328H1042.75C1042.76 58.166 1042.76 57.968 1042.76 57.77C1042.76 55.106 1041.04 53.414 1038.64 53.414C1036.25 53.414 1034.39 55.106 1034.39 57.77C1034.39 60.434 1036.25 62.18 1038.64 62.18ZM1035.62 57.212C1035.85 55.61 1037.06 54.602 1038.64 54.602C1040.21 54.602 1041.31 55.61 1041.54 57.212H1035.62ZM1046.18 49.04H1044.99V62H1046.18V49.04ZM1050.27 53.594H1049.08V62H1050.27V53.594ZM1048.78 50.462C1048.78 50.966 1049.19 51.326 1049.7 51.326C1050.2 51.326 1050.61 50.966 1050.61 50.462C1050.61 49.958 1050.2 49.598 1049.7 49.598C1049.19 49.598 1048.78 49.958 1048.78 50.462ZM1053.81 57.824C1053.81 55.952 1055.16 54.62 1056.91 54.62C1058.63 54.62 1060.07 55.736 1060.07 57.824C1060.07 59.912 1058.42 60.974 1056.91 60.974C1055.16 60.974 1053.81 59.75 1053.81 57.824ZM1053.16 64.106C1054.01 65.546 1055.39 66.194 1056.78 66.194C1059.43 66.194 1061.28 64.772 1061.28 60.668V53.594H1060.07V55.034C1059.44 53.972 1058.13 53.414 1056.91 53.414C1054.51 53.414 1052.6 55.16 1052.6 57.824C1052.6 60.488 1054.51 62.18 1056.91 62.18C1058.13 62.18 1059.52 61.55 1060.07 60.47C1060.07 63.908 1058.74 65.006 1056.78 65.006C1055.77 65.006 1054.82 64.538 1054.19 63.512L1053.16 64.106ZM1065.39 57.41C1065.39 55.358 1066.85 54.602 1068.18 54.602C1069.48 54.602 1070.21 55.538 1070.21 57.104V62H1071.42V57.104C1071.44 54.8 1070.25 53.414 1068.18 53.414C1067.21 53.414 1065.91 53.882 1065.39 54.98V49.04H1064.18V62H1065.39V57.41ZM1075.99 62V54.674H1077.77V53.594H1075.99V50.444H1074.78V53.594H1073.27V54.674H1074.78V62H1075.99ZM1084.29 49.04H1083.39C1081.16 49.04 1080.46 50.606 1080.46 52.622V53.594H1078.82V54.674H1080.46V62H1081.67V54.674H1083.74V53.594H1081.67V52.622C1081.67 51.506 1081.77 50.174 1083.39 50.174H1084.29V49.04ZM1091.6 58.184C1091.6 60.236 1090.15 60.992 1088.81 60.992C1087.52 60.992 1086.78 60.056 1086.78 58.49V53.594H1085.57V58.49C1085.56 60.794 1086.74 62.18 1088.81 62.18C1089.79 62.18 1091.08 61.712 1091.6 60.614V62H1092.81V53.594H1091.6V58.184ZM1096.91 49.04H1095.72V62H1096.91V49.04ZM1112.7 53.594H1111.49V54.98C1110.86 53.918 1109.55 53.414 1108.32 53.414C1105.93 53.414 1104.02 55.106 1104.02 57.77C1104.02 60.434 1105.93 62.18 1108.32 62.18C1109.55 62.18 1110.86 61.622 1111.49 60.56V62H1112.7V53.594ZM1105.23 57.77C1105.23 55.844 1106.58 54.62 1108.32 54.62C1109.83 54.62 1111.49 55.682 1111.49 57.77C1111.49 59.858 1110.05 60.974 1108.32 60.974C1106.58 60.974 1105.23 59.642 1105.23 57.77ZM1116.82 57.41C1116.82 55.358 1118.28 54.602 1119.61 54.602C1120.91 54.602 1121.65 55.538 1121.65 57.104V62H1122.85V57.104C1122.87 54.8 1121.68 53.414 1119.61 53.414C1118.64 53.414 1117.35 53.882 1116.82 54.98V53.594H1115.62V62H1116.82V57.41ZM1133.76 49.04H1132.55V54.98C1131.92 53.918 1130.61 53.414 1129.38 53.414C1126.99 53.414 1125.08 55.106 1125.08 57.77C1125.08 60.434 1126.99 62.18 1129.38 62.18C1130.61 62.18 1131.92 61.622 1132.55 60.56V62H1133.76V49.04ZM1126.29 57.77C1126.29 55.844 1127.64 54.62 1129.38 54.62C1130.89 54.62 1132.55 55.682 1132.55 57.77C1132.55 59.858 1131.11 60.974 1129.38 60.974C1127.64 60.974 1126.29 59.642 1126.29 57.77ZM866.072 84.594H864.884V93H866.072V84.594ZM864.578 81.462C864.578 81.966 864.992 82.326 865.496 82.326C866 82.326 866.414 81.966 866.414 81.462C866.414 80.958 866 80.598 865.496 80.598C864.992 80.598 864.578 80.958 864.578 81.462ZM870.185 88.41C870.185 86.358 871.643 85.602 872.975 85.602C874.271 85.602 875.009 86.538 875.009 88.104V93H876.215V88.104C876.233 85.8 875.045 84.414 872.975 84.414C872.003 84.414 870.707 84.882 870.185 85.98V84.594H868.979V93H870.185V88.41ZM880.781 93V85.674H882.563V84.594H880.781V81.444H879.575V84.594H878.063V85.674H879.575V93H880.781ZM888.068 93.18C889.778 93.18 891.2 92.316 891.902 90.804C891.524 90.714 891.056 90.624 890.696 90.534C890.174 91.452 889.22 91.992 888.068 91.992C886.52 91.992 885.242 90.966 885.044 89.328H892.172C892.189 89.166 892.189 88.968 892.189 88.77C892.189 86.106 890.462 84.414 888.068 84.414C885.674 84.414 883.82 86.106 883.82 88.77C883.82 91.434 885.674 93.18 888.068 93.18ZM885.044 88.212C885.278 86.61 886.484 85.602 888.068 85.602C889.634 85.602 890.732 86.61 890.966 88.212H885.044ZM899.401 84.738C899.239 84.594 898.609 84.414 898.033 84.414C896.809 84.414 896.035 85.062 895.621 86.502V84.594H894.415V93H895.621V89.868C895.621 87.636 896.323 85.62 898.033 85.62C898.339 85.62 898.843 85.71 899.257 85.908L899.401 84.738ZM904.626 93.18C906.336 93.18 907.758 92.316 908.46 90.804C908.082 90.714 907.614 90.624 907.254 90.534C906.732 91.452 905.778 91.992 904.626 91.992C903.078 91.992 901.8 90.966 901.602 89.328H908.73C908.748 89.166 908.748 88.968 908.748 88.77C908.748 86.106 907.02 84.414 904.626 84.414C902.232 84.414 900.378 86.106 900.378 88.77C900.378 91.434 902.232 93.18 904.626 93.18ZM901.602 88.212C901.836 86.61 903.042 85.602 904.626 85.602C906.192 85.602 907.29 86.61 907.524 88.212H901.602ZM910.308 90.588C910.362 92.244 911.838 93.18 913.242 93.18C914.988 93.18 916.32 92.172 916.32 90.714C916.32 89.562 915.78 88.644 914.196 88.266L913.044 87.996C912.468 87.852 911.604 87.546 911.802 86.592C911.892 85.998 912.558 85.566 913.368 85.566C914.088 85.566 914.7 85.944 914.844 86.592H916.014C915.78 85.062 914.682 84.414 913.368 84.414C912 84.414 910.83 85.206 910.632 86.412C910.398 88.374 911.73 88.914 912.756 89.148L913.926 89.418C914.808 89.634 915.132 90.156 915.132 90.714C915.132 91.506 914.43 92.046 913.35 92.046C911.928 92.046 911.514 91.236 911.37 90.588H910.308ZM920.367 93V85.674H922.149V84.594H920.367V81.444H919.161V84.594H917.649V85.674H919.161V93H920.367ZM925.328 84.594H924.14V93H925.328V84.594ZM923.834 81.462C923.834 81.966 924.248 82.326 924.752 82.326C925.256 82.326 925.67 81.966 925.67 81.462C925.67 80.958 925.256 80.598 924.752 80.598C924.248 80.598 923.834 80.958 923.834 81.462ZM929.441 88.41C929.441 86.358 930.899 85.602 932.231 85.602C933.527 85.602 934.265 86.538 934.265 88.104V93H935.471V88.104C935.489 85.8 934.301 84.414 932.231 84.414C931.259 84.414 929.963 84.882 929.441 85.98V84.594H928.235V93H929.441V88.41ZM938.902 88.824C938.902 86.952 940.252 85.62 941.998 85.62C943.726 85.62 945.166 86.736 945.166 88.824C945.166 90.912 943.51 91.974 941.998 91.974C940.252 91.974 938.902 90.75 938.902 88.824ZM938.254 95.106C939.1 96.546 940.486 97.194 941.872 97.194C944.518 97.194 946.372 95.772 946.372 91.668V84.594H945.166V86.034C944.536 84.972 943.222 84.414 941.998 84.414C939.604 84.414 937.696 86.16 937.696 88.824C937.696 91.488 939.604 93.18 941.998 93.18C943.222 93.18 944.608 92.55 945.166 91.47C945.166 94.908 943.834 96.006 941.872 96.006C940.864 96.006 939.91 95.538 939.28 94.512L938.254 95.106ZM962.158 84.594H960.952V85.98C960.322 84.918 959.008 84.414 957.784 84.414C955.39 84.414 953.482 86.106 953.482 88.77C953.482 91.434 955.39 93.18 957.784 93.18C959.008 93.18 960.322 92.622 960.952 91.56V93H962.158V84.594ZM954.688 88.77C954.688 86.844 956.038 85.62 957.784 85.62C959.296 85.62 960.952 86.682 960.952 88.77C960.952 90.858 959.512 91.974 957.784 91.974C956.038 91.974 954.688 90.642 954.688 88.77ZM965.079 97.068H966.285V91.632C966.915 92.712 968.211 93.18 969.453 93.18C971.847 93.18 973.755 91.506 973.755 88.842C973.755 86.178 971.847 84.414 969.453 84.414C968.229 84.414 966.915 84.99 966.285 86.052V84.594H965.079V97.068ZM972.549 88.842C972.549 90.786 971.199 91.974 969.453 91.974C967.941 91.974 966.285 90.912 966.285 88.842C966.285 86.772 967.725 85.62 969.453 85.62C971.199 85.62 972.549 86.97 972.549 88.842ZM976.101 97.068H977.307V91.632C977.937 92.712 979.233 93.18 980.475 93.18C982.869 93.18 984.777 91.506 984.777 88.842C984.777 86.178 982.869 84.414 980.475 84.414C979.251 84.414 977.937 84.99 977.307 86.052V84.594H976.101V97.068ZM983.571 88.842C983.571 90.786 982.221 91.974 980.475 91.974C978.963 91.974 977.307 90.912 977.307 88.842C977.307 86.772 978.747 85.62 980.475 85.62C982.221 85.62 983.571 86.97 983.571 88.842ZM988.31 80.04H987.122V93H988.31V80.04ZM992.406 84.594H991.218V93H992.406V84.594ZM990.912 81.462C990.912 81.966 991.326 82.326 991.83 82.326C992.334 82.326 992.748 81.966 992.748 81.462C992.748 80.958 992.334 80.598 991.83 80.598C991.326 80.598 990.912 80.958 990.912 81.462ZM1001.31 91.182C1000.71 91.722 999.975 91.992 999.129 91.992C997.383 91.992 995.925 90.714 995.925 88.77C995.925 86.826 997.383 85.602 999.129 85.602C999.975 85.602 1000.73 85.89 1001.31 86.394L1002.15 85.548C1001.36 84.828 1000.3 84.414 999.129 84.414C996.735 84.414 994.737 86.106 994.737 88.77C994.737 91.434 996.735 93.18 999.129 93.18C1000.3 93.18 1001.38 92.766 1002.17 92.028L1001.31 91.182ZM1012.22 84.594H1011.01V85.98C1010.38 84.918 1009.07 84.414 1007.85 84.414C1005.45 84.414 1003.54 86.106 1003.54 88.77C1003.54 91.434 1005.45 93.18 1007.85 93.18C1009.07 93.18 1010.38 92.622 1011.01 91.56V93H1012.22V84.594ZM1004.75 88.77C1004.75 86.844 1006.1 85.62 1007.85 85.62C1009.36 85.62 1011.01 86.682 1011.01 88.77C1011.01 90.858 1009.57 91.974 1007.85 91.974C1006.1 91.974 1004.75 90.642 1004.75 88.77ZM1016.91 93V85.674H1018.69V84.594H1016.91V81.444H1015.7V84.594H1014.19V85.674H1015.7V93H1016.91ZM1021.87 84.594H1020.68V93H1021.87V84.594ZM1020.37 81.462C1020.37 81.966 1020.79 82.326 1021.29 82.326C1021.79 82.326 1022.21 81.966 1022.21 81.462C1022.21 80.958 1021.79 80.598 1021.29 80.598C1020.79 80.598 1020.37 80.958 1020.37 81.462ZM1028.59 93.18C1030.98 93.18 1032.98 91.434 1032.98 88.77C1032.98 86.106 1030.98 84.414 1028.59 84.414C1026.2 84.414 1024.2 86.106 1024.2 88.77C1024.2 91.434 1026.2 93.18 1028.59 93.18ZM1028.59 91.992C1026.84 91.992 1025.39 90.714 1025.39 88.77C1025.39 86.826 1026.84 85.602 1028.59 85.602C1030.34 85.602 1031.79 86.826 1031.79 88.77C1031.79 90.714 1030.34 91.992 1028.59 91.992ZM1036.53 88.41C1036.53 86.358 1037.99 85.602 1039.32 85.602C1040.61 85.602 1041.35 86.538 1041.35 88.104V93H1042.56V88.104C1042.58 85.8 1041.39 84.414 1039.32 84.414C1038.35 84.414 1037.05 84.882 1036.53 85.98V84.594H1035.32V93H1036.53V88.41ZM1051.9 93V85.674H1053.69V84.594H1051.9V81.444H1050.7V84.594H1049.19V85.674H1050.7V93H1051.9ZM1056.88 88.41C1056.88 86.358 1058.34 85.602 1059.67 85.602C1060.97 85.602 1061.71 86.538 1061.71 88.104V93H1062.91V88.104C1062.93 85.8 1061.74 84.414 1059.67 84.414C1058.7 84.414 1057.4 84.882 1056.88 85.98V80.04H1055.68V93H1056.88V88.41ZM1073.81 84.594H1072.61V85.98C1071.98 84.918 1070.66 84.414 1069.44 84.414C1067.05 84.414 1065.14 86.106 1065.14 88.77C1065.14 91.434 1067.05 93.18 1069.44 93.18C1070.66 93.18 1071.98 92.622 1072.61 91.56V93H1073.81V84.594ZM1066.34 88.77C1066.34 86.844 1067.69 85.62 1069.44 85.62C1070.95 85.62 1072.61 86.682 1072.61 88.77C1072.61 90.858 1071.17 91.974 1069.44 91.974C1067.69 91.974 1066.34 90.642 1066.34 88.77ZM1078.5 93V85.674H1080.28V84.594H1078.5V81.444H1077.29V84.594H1075.78V85.674H1077.29V93H1078.5ZM1096.08 93L1099.23 84.594H1097.95L1095.54 91.092L1093.11 84.594H1091.81L1089.4 91.092L1086.97 84.594H1085.69L1088.93 93H1089.94L1092.46 86.25L1095.07 93H1096.08ZM1104.79 93.18C1107.19 93.18 1109.18 91.434 1109.18 88.77C1109.18 86.106 1107.19 84.414 1104.79 84.414C1102.4 84.414 1100.4 86.106 1100.4 88.77C1100.4 91.434 1102.4 93.18 1104.79 93.18ZM1104.79 91.992C1103.05 91.992 1101.59 90.714 1101.59 88.77C1101.59 86.826 1103.05 85.602 1104.79 85.602C1106.54 85.602 1108 86.826 1108 88.77C1108 90.714 1106.54 91.992 1104.79 91.992ZM1117.44 89.184C1117.44 91.236 1115.99 91.992 1114.65 91.992C1113.36 91.992 1112.62 91.056 1112.62 89.49V84.594H1111.41V89.49C1111.4 91.794 1112.58 93.18 1114.65 93.18C1115.63 93.18 1116.92 92.712 1117.44 91.614V93H1118.65V84.594H1117.44V89.184ZM1122.75 80.04H1121.56V93H1122.75V80.04ZM1133.76 80.04H1132.55V85.98C1131.92 84.918 1130.61 84.414 1129.38 84.414C1126.99 84.414 1125.08 86.106 1125.08 88.77C1125.08 91.434 1126.99 93.18 1129.38 93.18C1130.61 93.18 1131.92 92.622 1132.55 91.56V93H1133.76V80.04ZM1126.29 88.77C1126.29 86.844 1127.64 85.62 1129.38 85.62C1130.89 85.62 1132.55 86.682 1132.55 88.77C1132.55 90.858 1131.11 91.974 1129.38 91.974C1127.64 91.974 1126.29 90.642 1126.29 88.77ZM809.778 121.588C809.832 123.244 811.308 124.18 812.712 124.18C814.458 124.18 815.79 123.172 815.79 121.714C815.79 120.562 815.25 119.644 813.666 119.266L812.514 118.996C811.938 118.852 811.074 118.546 811.272 117.592C811.362 116.998 812.028 116.566 812.838 116.566C813.558 116.566 814.17 116.944 814.314 117.592H815.484C815.25 116.062 814.152 115.414 812.838 115.414C811.47 115.414 810.3 116.206 810.102 117.412C809.868 119.374 811.2 119.914 812.226 120.148L813.396 120.418C814.278 120.634 814.602 121.156 814.602 121.714C814.602 122.506 813.9 123.046 812.82 123.046C811.398 123.046 810.984 122.236 810.84 121.588H809.778ZM819.837 124V116.674H821.619V115.594H819.837V112.444H818.631V115.594H817.119V116.674H818.631V124H819.837ZM831.552 115.594H830.346V116.98C829.716 115.918 828.402 115.414 827.178 115.414C824.784 115.414 822.876 117.106 822.876 119.77C822.876 122.434 824.784 124.18 827.178 124.18C828.402 124.18 829.716 123.622 830.346 122.56V124H831.552V115.594ZM824.082 119.77C824.082 117.844 825.432 116.62 827.178 116.62C828.69 116.62 830.346 117.682 830.346 119.77C830.346 121.858 828.906 122.974 827.178 122.974C825.432 122.974 824.082 121.642 824.082 119.77ZM835.68 119.41C835.68 117.358 837.138 116.602 838.47 116.602C839.766 116.602 840.504 117.538 840.504 119.104V124H841.71V119.104C841.728 116.8 840.54 115.414 838.47 115.414C837.498 115.414 836.202 115.882 835.68 116.98V115.594H834.474V124H835.68V119.41ZM852.611 111.04H851.405V116.98C850.775 115.918 849.461 115.414 848.237 115.414C845.843 115.414 843.935 117.106 843.935 119.77C843.935 122.434 845.843 124.18 848.237 124.18C849.461 124.18 850.775 123.622 851.405 122.56V124H852.611V111.04ZM845.141 119.77C845.141 117.844 846.491 116.62 848.237 116.62C849.749 116.62 851.405 117.682 851.405 119.77C851.405 121.858 849.965 122.974 848.237 122.974C846.491 122.974 845.141 121.642 845.141 119.77ZM864.129 124.18C866.523 124.18 868.521 122.434 868.521 119.77C868.521 117.106 866.523 115.414 864.129 115.414C861.735 115.414 859.737 117.106 859.737 119.77C859.737 122.434 861.735 124.18 864.129 124.18ZM864.129 122.992C862.383 122.992 860.925 121.714 860.925 119.77C860.925 117.826 862.383 116.602 864.129 116.602C865.875 116.602 867.333 117.826 867.333 119.77C867.333 121.714 865.875 122.992 864.129 122.992ZM876.782 120.184C876.782 122.236 875.324 122.992 873.992 122.992C872.696 122.992 871.958 122.056 871.958 120.49V115.594H870.752V120.49C870.734 122.794 871.922 124.18 873.992 124.18C874.964 124.18 876.26 123.712 876.782 122.614V124H877.988V115.594H876.782V120.184ZM882.661 124V116.674H884.443V115.594H882.661V112.444H881.455V115.594H879.943V116.674H881.455V124H882.661ZM898.964 115.594H897.758V116.98C897.128 115.918 895.814 115.414 894.59 115.414C892.196 115.414 890.288 117.106 890.288 119.77C890.288 122.434 892.196 124.18 894.59 124.18C895.814 124.18 897.128 123.622 897.758 122.56V124H898.964V115.594ZM891.494 119.77C891.494 117.844 892.844 116.62 894.59 116.62C896.102 116.62 897.758 117.682 897.758 119.77C897.758 121.858 896.318 122.974 894.59 122.974C892.844 122.974 891.494 121.642 891.494 119.77ZM909.122 119.41C909.122 117.358 910.58 116.602 911.912 116.602C913.208 116.602 913.946 117.538 913.946 119.104V124H915.152V119.104C915.17 116.8 913.982 115.414 911.912 115.414C911.066 115.414 909.572 115.666 908.798 117.25C908.312 116.08 907.322 115.414 905.882 115.414C905.108 115.414 903.614 115.882 903.092 116.98V115.594H901.886V124H903.092V119.41C903.092 117.358 904.55 116.602 905.882 116.602C907.178 116.602 907.916 117.538 907.916 119.104V124H909.122V119.41ZM921.768 124.18C924.162 124.18 926.16 122.434 926.16 119.77C926.16 117.106 924.162 115.414 921.768 115.414C919.374 115.414 917.376 117.106 917.376 119.77C917.376 122.434 919.374 124.18 921.768 124.18ZM921.768 122.992C920.022 122.992 918.564 121.714 918.564 119.77C918.564 117.826 920.022 116.602 921.768 116.602C923.514 116.602 924.972 117.826 924.972 119.77C924.972 121.714 923.514 122.992 921.768 122.992ZM929.705 119.41C929.705 117.358 931.163 116.602 932.495 116.602C933.791 116.602 934.529 117.538 934.529 119.104V124H935.735V119.104C935.753 116.8 934.565 115.414 932.495 115.414C931.523 115.414 930.227 115.882 929.705 116.98V115.594H928.499V124H929.705V119.41ZM939.166 119.824C939.166 117.952 940.516 116.62 942.262 116.62C943.99 116.62 945.43 117.736 945.43 119.824C945.43 121.912 943.774 122.974 942.262 122.974C940.516 122.974 939.166 121.75 939.166 119.824ZM938.518 126.106C939.364 127.546 940.75 128.194 942.136 128.194C944.782 128.194 946.636 126.772 946.636 122.668V115.594H945.43V117.034C944.8 115.972 943.486 115.414 942.262 115.414C939.868 115.414 937.96 117.16 937.96 119.824C937.96 122.488 939.868 124.18 942.262 124.18C943.486 124.18 944.872 123.55 945.43 122.47C945.43 125.908 944.098 127.006 942.136 127.006C941.128 127.006 940.174 126.538 939.544 125.512L938.518 126.106ZM962.403 114.676C962.403 112.786 961.197 111.598 959.181 111.598H954.663V124H959.595C961.809 124 963.069 122.398 963.069 120.526C963.069 119.158 962.151 117.646 960.891 117.394C962.025 116.962 962.403 115.846 962.403 114.676ZM955.869 116.872V112.768H959.055C960.351 112.768 961.215 113.434 961.215 114.676C961.215 115.828 960.621 116.872 959.325 116.872H955.869ZM959.505 117.988C960.945 117.988 961.881 119.374 961.881 120.526C961.881 121.732 960.981 122.812 959.577 122.812H955.869V117.988H959.505ZM973.601 115.594H972.395V116.98C971.765 115.918 970.451 115.414 969.227 115.414C966.833 115.414 964.925 117.106 964.925 119.77C964.925 122.434 966.833 124.18 969.227 124.18C970.451 124.18 971.765 123.622 972.395 122.56V124H973.601V115.594ZM966.131 119.77C966.131 117.844 967.481 116.62 969.227 116.62C970.739 116.62 972.395 117.682 972.395 119.77C972.395 121.858 970.955 122.974 969.227 122.974C967.481 122.974 966.131 121.642 966.131 119.77ZM978.286 124V116.674H980.068V115.594H978.286V112.444H977.08V115.594H975.568V116.674H977.08V124H978.286ZM987.895 122.182C987.301 122.722 986.563 122.992 985.717 122.992C983.971 122.992 982.513 121.714 982.513 119.77C982.513 117.826 983.971 116.602 985.717 116.602C986.563 116.602 987.319 116.89 987.895 117.394L988.741 116.548C987.949 115.828 986.887 115.414 985.717 115.414C983.323 115.414 981.325 117.106 981.325 119.77C981.325 122.434 983.323 124.18 985.717 124.18C986.887 124.18 987.967 123.766 988.759 123.028L987.895 122.182ZM992.178 119.41C992.178 117.358 993.636 116.602 994.968 116.602C996.264 116.602 997.002 117.538 997.002 119.104V124H998.208V119.104C998.226 116.8 997.038 115.414 994.968 115.414C993.996 115.414 992.7 115.882 992.178 116.98V111.04H990.972V124H992.178V119.41ZM1001.01 124H1002.21V122.56C1002.84 123.622 1004.16 124.18 1005.38 124.18C1007.78 124.18 1009.68 122.434 1009.68 119.77C1009.68 117.106 1007.78 115.414 1005.38 115.414C1004.16 115.414 1002.84 115.918 1002.21 116.98V111.04H1001.01V124ZM1008.48 119.77C1008.48 121.642 1007.13 122.974 1005.38 122.974C1003.65 122.974 1002.21 121.858 1002.21 119.77C1002.21 117.682 1003.87 116.62 1005.38 116.62C1007.13 116.62 1008.48 117.844 1008.48 119.77ZM1013.22 115.594H1012.03V124H1013.22V115.594ZM1011.72 112.462C1011.72 112.966 1012.14 113.326 1012.64 113.326C1013.15 113.326 1013.56 112.966 1013.56 112.462C1013.56 111.958 1013.15 111.598 1012.64 111.598C1012.14 111.598 1011.72 111.958 1011.72 112.462ZM1017.31 111.04H1016.13V124H1017.31V111.04ZM1021.41 111.04H1020.22V124H1021.41V111.04ZM1024.57 115.288C1025.24 114.73 1025.97 113.344 1026.12 111.454H1024.93C1024.95 112.984 1024.48 114.208 1023.89 115.054L1024.57 115.288ZM1027.38 121.588C1027.43 123.244 1028.91 124.18 1030.31 124.18C1032.06 124.18 1033.39 123.172 1033.39 121.714C1033.39 120.562 1032.85 119.644 1031.27 119.266L1030.11 118.996C1029.54 118.852 1028.67 118.546 1028.87 117.592C1028.96 116.998 1029.63 116.566 1030.44 116.566C1031.16 116.566 1031.77 116.944 1031.91 117.592H1033.08C1032.85 116.062 1031.75 115.414 1030.44 115.414C1029.07 115.414 1027.9 116.206 1027.7 117.412C1027.47 119.374 1028.8 119.914 1029.83 120.148L1031 120.418C1031.88 120.634 1032.2 121.156 1032.2 121.714C1032.2 122.506 1031.5 123.046 1030.42 123.046C1029 123.046 1028.58 122.236 1028.44 121.588H1027.38ZM1046.45 122.182C1045.85 122.722 1045.12 122.992 1044.27 122.992C1042.52 122.992 1041.07 121.714 1041.07 119.77C1041.07 117.826 1042.52 116.602 1044.27 116.602C1045.12 116.602 1045.87 116.89 1046.45 117.394L1047.29 116.548C1046.5 115.828 1045.44 115.414 1044.27 115.414C1041.88 115.414 1039.88 117.106 1039.88 119.77C1039.88 122.434 1041.88 124.18 1044.27 124.18C1045.44 124.18 1046.52 123.766 1047.31 123.028L1046.45 122.182ZM1053.08 124.18C1055.47 124.18 1057.47 122.434 1057.47 119.77C1057.47 117.106 1055.47 115.414 1053.08 115.414C1050.68 115.414 1048.68 117.106 1048.68 119.77C1048.68 122.434 1050.68 124.18 1053.08 124.18ZM1053.08 122.992C1051.33 122.992 1049.87 121.714 1049.87 119.77C1049.87 117.826 1051.33 116.602 1053.08 116.602C1054.82 116.602 1056.28 117.826 1056.28 119.77C1056.28 121.714 1054.82 122.992 1053.08 122.992ZM1067.04 119.41C1067.04 117.358 1068.5 116.602 1069.83 116.602C1071.13 116.602 1071.87 117.538 1071.87 119.104V124H1073.07V119.104C1073.09 116.8 1071.9 115.414 1069.83 115.414C1068.99 115.414 1067.49 115.666 1066.72 117.25C1066.23 116.08 1065.24 115.414 1063.8 115.414C1063.03 115.414 1061.54 115.882 1061.01 116.98V115.594H1059.81V124H1061.01V119.41C1061.01 117.358 1062.47 116.602 1063.8 116.602C1065.1 116.602 1065.84 117.538 1065.84 119.104V124H1067.04V119.41ZM1075.87 128.068H1077.08V122.632C1077.71 123.712 1079.01 124.18 1080.25 124.18C1082.64 124.18 1084.55 122.506 1084.55 119.842C1084.55 117.178 1082.64 115.414 1080.25 115.414C1079.02 115.414 1077.71 115.99 1077.08 117.052V115.594H1075.87V128.068ZM1083.34 119.842C1083.34 121.786 1081.99 122.974 1080.25 122.974C1078.74 122.974 1077.08 121.912 1077.08 119.842C1077.08 117.772 1078.52 116.62 1080.25 116.62C1081.99 116.62 1083.34 117.97 1083.34 119.842ZM1090.57 124.18C1092.28 124.18 1093.7 123.316 1094.4 121.804C1094.02 121.714 1093.56 121.624 1093.2 121.534C1092.67 122.452 1091.72 122.992 1090.57 122.992C1089.02 122.992 1087.74 121.966 1087.54 120.328H1094.67C1094.69 120.166 1094.69 119.968 1094.69 119.77C1094.69 117.106 1092.96 115.414 1090.57 115.414C1088.17 115.414 1086.32 117.106 1086.32 119.77C1086.32 122.434 1088.17 124.18 1090.57 124.18ZM1087.54 119.212C1087.78 117.61 1088.98 116.602 1090.57 116.602C1092.13 116.602 1093.23 117.61 1093.47 119.212H1087.54ZM1098.68 124V116.674H1100.46V115.594H1098.68V112.444H1097.47V115.594H1095.96V116.674H1097.47V124H1098.68ZM1103.64 115.594H1102.45V124H1103.64V115.594ZM1102.15 112.462C1102.15 112.966 1102.56 113.326 1103.06 113.326C1103.57 113.326 1103.98 112.966 1103.98 112.462C1103.98 111.958 1103.57 111.598 1103.06 111.598C1102.56 111.598 1102.15 111.958 1102.15 112.462ZM1108.31 124V116.674H1110.09V115.594H1108.31V112.444H1107.11V115.594H1105.59V116.674H1107.11V124H1108.31ZM1115.74 124.18C1118.14 124.18 1120.13 122.434 1120.13 119.77C1120.13 117.106 1118.14 115.414 1115.74 115.414C1113.35 115.414 1111.35 117.106 1111.35 119.77C1111.35 122.434 1113.35 124.18 1115.74 124.18ZM1115.74 122.992C1114 122.992 1112.54 121.714 1112.54 119.77C1112.54 117.826 1114 116.602 1115.74 116.602C1117.49 116.602 1118.95 117.826 1118.95 119.77C1118.95 121.714 1117.49 122.992 1115.74 122.992ZM1127.46 115.738C1127.3 115.594 1126.67 115.414 1126.09 115.414C1124.87 115.414 1124.09 116.062 1123.68 117.502V115.594H1122.47V124H1123.68V120.868C1123.68 118.636 1124.38 116.62 1126.09 116.62C1126.4 116.62 1126.9 116.71 1127.32 116.908L1127.46 115.738ZM1128.59 121.588C1128.65 123.244 1130.12 124.18 1131.53 124.18C1133.27 124.18 1134.6 123.172 1134.6 121.714C1134.6 120.562 1134.06 119.644 1132.48 119.266L1131.33 118.996C1130.75 118.852 1129.89 118.546 1130.09 117.592C1130.18 116.998 1130.84 116.566 1131.65 116.566C1132.37 116.566 1132.98 116.944 1133.13 117.592H1134.3C1134.06 116.062 1132.97 115.414 1131.65 115.414C1130.28 115.414 1129.11 116.206 1128.92 117.412C1128.68 119.374 1130.01 119.914 1131.04 120.148L1132.21 120.418C1133.09 120.634 1133.42 121.156 1133.42 121.714C1133.42 122.506 1132.71 123.046 1131.63 123.046C1130.21 123.046 1129.8 122.236 1129.65 121.588H1128.59ZM1136.73 123.244C1136.73 123.802 1137.16 124.18 1137.72 124.18C1138.27 124.18 1138.71 123.802 1138.71 123.244C1138.71 122.686 1138.27 122.308 1137.72 122.308C1137.16 122.308 1136.73 122.686 1136.73 123.244Z" fill="white"/>
<path d="M1.782 315H11.572V312.162H4.994V308.928H10.582V306.134H4.994V302.68H11.374V299.842H1.782V315ZM21.438 315H24.474V304.726H21.438V305.87C20.602 304.748 19.128 304.506 18.446 304.506C15.828 304.506 13.21 306.574 13.21 309.852C13.21 313.13 15.828 315.198 18.446 315.198C19.216 315.198 20.8 314.802 21.438 313.834V315ZM16.378 309.852C16.378 308.378 17.654 307.41 18.952 307.41C20.206 307.41 21.438 308.334 21.438 309.852C21.438 311.392 20.206 312.294 18.952 312.294C17.654 312.294 16.378 311.326 16.378 309.852ZM31.3007 311.128C32.0707 311.326 32.3127 311.568 32.3127 312.008C32.3127 312.536 31.7407 312.844 31.0587 312.866C30.2007 312.866 29.5627 312.272 29.5407 311.678H26.6807C26.6807 313.966 28.9027 315.22 30.9707 315.22C33.1267 315.22 35.4147 314.186 35.4147 312.008C35.4147 311.326 35.1067 309.72 32.6207 309.016L30.8827 308.554C30.2667 308.4 30.0027 308.114 29.9807 307.784C29.9587 307.322 30.3767 307.014 31.0587 307.014C31.5647 307.014 32.2027 307.146 32.2247 307.916H35.1067C35.1067 305.386 32.9067 304.506 30.8827 304.506C28.7267 304.506 26.8787 305.914 26.8787 307.432C26.8787 308.378 26.8567 309.962 29.9587 310.776L31.3007 311.128ZM47.1398 304.726H43.8838L41.5958 310.556L39.3298 304.726H36.0738L40.0338 313.944L37.5698 320.038H40.8038L47.1398 304.726ZM64.3986 304.066C64.3986 301.492 62.6386 299.842 59.9106 299.842H53.8386V315H60.3506C63.3646 315 65.1906 312.866 65.1906 310.358C65.1906 309.104 64.3326 307.432 62.3306 306.904C63.9146 306.31 64.3986 305.056 64.3986 304.066ZM57.0726 305.826V302.68H59.5806C60.5266 302.68 61.0106 303.318 61.0106 304.264C61.0106 305.166 60.4606 305.826 59.6026 305.826H57.0726ZM60.1086 308.488C61.2526 308.488 61.8026 309.434 61.8026 310.292C61.8026 311.194 61.2526 312.162 60.1746 312.162H57.0726V308.488H60.1086ZM70.5085 304.726H67.4725V315H70.5085V304.726ZM67.0765 300.92C67.0765 301.91 67.9565 302.724 68.9905 302.724C70.0465 302.724 70.8605 301.91 70.8605 300.92C70.8605 299.886 70.0245 299.138 68.9905 299.138C67.9565 299.138 67.0765 299.908 67.0765 300.92ZM73.3162 299.138V315H76.3742V299.138H73.3162ZM79.1814 299.138V315H82.2394V299.138H79.1814ZM96.9518 302.68C98.1838 302.68 98.7778 303.868 98.7778 304.814C98.7778 305.782 98.1178 306.948 96.8638 306.948H94.0258V302.68H96.9518ZM90.7918 315H94.0258V309.764H97.0178C100.472 309.764 102.012 307.344 102.012 304.814C102.012 302.328 100.472 299.842 97.0178 299.842H90.7918V315ZM111.178 315H114.214V304.726H111.178V305.87C110.342 304.748 108.868 304.506 108.186 304.506C105.568 304.506 102.95 306.574 102.95 309.852C102.95 313.13 105.568 315.198 108.186 315.198C108.956 315.198 110.54 314.802 111.178 313.834V315ZM106.118 309.852C106.118 308.378 107.394 307.41 108.692 307.41C109.946 307.41 111.178 308.334 111.178 309.852C111.178 311.392 109.946 312.294 108.692 312.294C107.394 312.294 106.118 311.326 106.118 309.852ZM126.761 304.726H123.505L121.217 310.556L118.951 304.726H115.695L119.655 313.944L117.191 320.038H120.425L126.761 304.726ZM139.604 307.476C140.506 307.476 141.298 308.18 141.298 309.522V315H144.334V309.17C144.334 306.068 142.838 304.506 140.374 304.506C139.626 304.506 138.306 304.726 137.294 306.332C136.722 305.122 135.622 304.528 133.994 304.528C132.872 304.528 131.816 305.144 131.31 306.222V304.726H128.252V315H131.31V309.566C131.31 308.004 132.146 307.476 133.092 307.476C133.972 307.476 134.764 308.136 134.786 309.456V315H137.844V309.566C137.844 308.07 138.636 307.476 139.604 307.476ZM154.245 311.612C153.739 312.294 152.859 312.58 152.001 312.58C150.901 312.58 149.647 312.052 149.471 310.864H156.995C157.017 310.6 157.039 310.182 157.039 309.918C157.039 306.684 154.707 304.506 151.781 304.506C148.855 304.506 146.413 306.574 146.413 309.83C146.413 313.064 148.855 315.22 151.781 315.22C153.541 315.22 155.411 314.67 156.467 313.13L154.245 311.612ZM149.515 308.95C149.757 307.63 150.967 307.19 151.803 307.19C152.683 307.19 153.783 307.696 153.959 308.95H149.515ZM162.183 309.566C162.183 308.004 162.997 307.476 164.075 307.476C165.109 307.476 165.857 308.136 165.857 309.522V315H168.915V308.862C168.915 305.936 167.463 304.506 165.153 304.506C163.921 304.506 162.733 305.188 162.183 306.222V304.726H159.125V315H162.183V309.566ZM175.633 304.726V300.788H172.597V304.726H170.727V307.146H172.597V315H175.633V307.146H177.789V304.726H175.633ZM183.668 311.128C184.438 311.326 184.68 311.568 184.68 312.008C184.68 312.536 184.108 312.844 183.426 312.866C182.568 312.866 181.93 312.272 181.908 311.678H179.048C179.048 313.966 181.27 315.22 183.338 315.22C185.494 315.22 187.782 314.186 187.782 312.008C187.782 311.326 187.474 309.72 184.988 309.016L183.25 308.554C182.634 308.4 182.37 308.114 182.348 307.784C182.326 307.322 182.744 307.014 183.426 307.014C183.932 307.014 184.57 307.146 184.592 307.916H187.474C187.474 305.386 185.274 304.506 183.25 304.506C181.094 304.506 179.246 305.914 179.246 307.432C179.246 308.378 179.224 309.962 182.326 310.776L183.668 311.128Z" fill="white"/>
<path d="M10.584 357.48C9.666 358.416 8.424 358.992 6.984 358.992C4.122 358.992 2.16 356.688 2.16 353.826C2.16 350.946 4.122 348.642 6.984 348.642C8.424 348.642 9.648 349.218 10.566 350.136L11.394 349.308C10.26 348.156 8.73 347.454 6.984 347.454C3.474 347.454 0.972 350.316 0.972 353.826C0.972 357.354 3.474 360.18 6.984 360.18C8.73 360.18 10.278 359.478 11.412 358.326L10.584 357.48ZM18.3971 351.738C18.2351 351.594 17.6051 351.414 17.0291 351.414C15.8051 351.414 15.0311 352.062 14.6171 353.502V351.594H13.4111V360H14.6171V356.868C14.6171 354.636 15.3191 352.62 17.0291 352.62C17.3351 352.62 17.8391 352.71 18.2531 352.908L18.3971 351.738ZM23.6222 360.18C25.3322 360.18 26.7542 359.316 27.4562 357.804C27.0782 357.714 26.6102 357.624 26.2502 357.534C25.7282 358.452 24.7742 358.992 23.6222 358.992C22.0742 358.992 20.7962 357.966 20.5982 356.328H27.7262C27.7442 356.166 27.7442 355.968 27.7442 355.77C27.7442 353.106 26.0162 351.414 23.6222 351.414C21.2282 351.414 19.3742 353.106 19.3742 355.77C19.3742 358.434 21.2282 360.18 23.6222 360.18ZM20.5982 355.212C20.8322 353.61 22.0382 352.602 23.6222 352.602C25.1882 352.602 26.2862 353.61 26.5202 355.212H20.5982ZM38.0697 351.594H36.8637V352.98C36.2337 351.918 34.9197 351.414 33.6957 351.414C31.3017 351.414 29.3937 353.106 29.3937 355.77C29.3937 358.434 31.3017 360.18 33.6957 360.18C34.9197 360.18 36.2337 359.622 36.8637 358.56V360H38.0697V351.594ZM30.5997 355.77C30.5997 353.844 31.9497 352.62 33.6957 352.62C35.2077 352.62 36.8637 353.682 36.8637 355.77C36.8637 357.858 35.4237 358.974 33.6957 358.974C31.9497 358.974 30.5997 357.642 30.5997 355.77ZM42.7552 360V352.674H44.5372V351.594H42.7552V348.444H41.5492V351.594H40.0372V352.674H41.5492V360H42.7552ZM47.7163 351.594H46.5283V360H47.7163V351.594ZM46.2223 348.462C46.2223 348.966 46.6363 349.326 47.1403 349.326C47.6443 349.326 48.0583 348.966 48.0583 348.462C48.0583 347.958 47.6443 347.598 47.1403 347.598C46.6363 347.598 46.2223 347.958 46.2223 348.462ZM51.83 355.41C51.83 353.358 53.288 352.602 54.62 352.602C55.916 352.602 56.654 353.538 56.654 355.104V360H57.86V355.104C57.878 352.8 56.69 351.414 54.62 351.414C53.648 351.414 52.352 351.882 51.83 352.98V351.594H50.624V360H51.83V355.41ZM61.2911 355.824C61.2911 353.952 62.6411 352.62 64.3871 352.62C66.1151 352.62 67.5551 353.736 67.5551 355.824C67.5551 357.912 65.8991 358.974 64.3871 358.974C62.6411 358.974 61.2911 357.75 61.2911 355.824ZM60.6431 362.106C61.4891 363.546 62.8751 364.194 64.2611 364.194C66.9071 364.194 68.7611 362.772 68.7611 358.668V351.594H67.5551V353.034C66.9251 351.972 65.6111 351.414 64.3871 351.414C61.9931 351.414 60.0851 353.16 60.0851 355.824C60.0851 358.488 61.9931 360.18 64.3871 360.18C65.6111 360.18 66.9971 359.55 67.5551 358.47C67.5551 361.908 66.2231 363.006 64.2611 363.006C63.2531 363.006 62.2991 362.538 61.6691 361.512L60.6431 362.106ZM84.5463 351.594H83.3403V352.98C82.7103 351.918 81.3963 351.414 80.1723 351.414C77.7783 351.414 75.8703 353.106 75.8703 355.77C75.8703 358.434 77.7783 360.18 80.1723 360.18C81.3963 360.18 82.7103 359.622 83.3403 358.56V360H84.5463V351.594ZM77.0763 355.77C77.0763 353.844 78.4263 352.62 80.1723 352.62C81.6843 352.62 83.3403 353.682 83.3403 355.77C83.3403 357.858 81.9003 358.974 80.1723 358.974C78.4263 358.974 77.0763 357.642 77.0763 355.77ZM88.6738 355.41C88.6738 353.358 90.1318 352.602 91.4638 352.602C92.7598 352.602 93.4978 353.538 93.4978 355.104V360H94.7038V355.104C94.7218 352.8 93.5338 351.414 91.4638 351.414C90.4918 351.414 89.1958 351.882 88.6738 352.98V351.594H87.4678V360H88.6738V355.41ZM110.386 351.594H109.18V352.98C108.55 351.918 107.236 351.414 106.012 351.414C103.618 351.414 101.71 353.106 101.71 355.77C101.71 358.434 103.618 360.18 106.012 360.18C107.236 360.18 108.55 359.622 109.18 358.56V360H110.386V351.594ZM102.916 355.77C102.916 353.844 104.266 352.62 106.012 352.62C107.524 352.62 109.18 353.682 109.18 355.77C109.18 357.858 107.74 358.974 106.012 358.974C104.266 358.974 102.916 357.642 102.916 355.77ZM113.308 364.068H114.514V358.632C115.144 359.712 116.44 360.18 117.682 360.18C120.076 360.18 121.984 358.506 121.984 355.842C121.984 353.178 120.076 351.414 117.682 351.414C116.458 351.414 115.144 351.99 114.514 353.052V351.594H113.308V364.068ZM120.778 355.842C120.778 357.786 119.428 358.974 117.682 358.974C116.17 358.974 114.514 357.912 114.514 355.842C114.514 353.772 115.954 352.62 117.682 352.62C119.428 352.62 120.778 353.97 120.778 355.842ZM124.329 364.068H125.535V358.632C126.165 359.712 127.461 360.18 128.703 360.18C131.097 360.18 133.005 358.506 133.005 355.842C133.005 353.178 131.097 351.414 128.703 351.414C127.479 351.414 126.165 351.99 125.535 353.052V351.594H124.329V364.068ZM131.799 355.842C131.799 357.786 130.449 358.974 128.703 358.974C127.191 358.974 125.535 357.912 125.535 355.842C125.535 353.772 126.975 352.62 128.703 352.62C130.449 352.62 131.799 353.97 131.799 355.842ZM141.896 360V352.674H143.678V351.594H141.896V348.444H140.69V351.594H139.178V352.674H140.69V360H141.896ZM146.875 355.41C146.875 353.358 148.333 352.602 149.665 352.602C150.961 352.602 151.699 353.538 151.699 355.104V360H152.905V355.104C152.923 352.8 151.735 351.414 149.665 351.414C148.693 351.414 147.397 351.882 146.875 352.98V347.04H145.669V360H146.875V355.41ZM163.806 351.594H162.6V352.98C161.97 351.918 160.656 351.414 159.432 351.414C157.038 351.414 155.13 353.106 155.13 355.77C155.13 358.434 157.038 360.18 159.432 360.18C160.656 360.18 161.97 359.622 162.6 358.56V360H163.806V351.594ZM156.336 355.77C156.336 353.844 157.686 352.62 159.432 352.62C160.944 352.62 162.6 353.682 162.6 355.77C162.6 357.858 161.16 358.974 159.432 358.974C157.686 358.974 156.336 357.642 156.336 355.77ZM168.492 360V352.674H170.274V351.594H168.492V348.444H167.286V351.594H165.774V352.674H167.286V360H168.492ZM183.93 355.41C183.93 353.358 185.388 352.602 186.72 352.602C188.016 352.602 188.754 353.538 188.754 355.104V360H189.96V355.104C189.978 352.8 188.79 351.414 186.72 351.414C185.874 351.414 184.38 351.666 183.606 353.25C183.12 352.08 182.13 351.414 180.69 351.414C179.916 351.414 178.422 351.882 177.9 352.98V351.594H176.694V360H177.9V355.41C177.9 353.358 179.358 352.602 180.69 352.602C181.986 352.602 182.724 353.538 182.724 355.104V360H183.93V355.41ZM200.861 351.594H199.655V352.98C199.025 351.918 197.711 351.414 196.487 351.414C194.093 351.414 192.185 353.106 192.185 355.77C192.185 358.434 194.093 360.18 196.487 360.18C197.711 360.18 199.025 359.622 199.655 358.56V360H200.861V351.594ZM193.391 355.77C193.391 353.844 194.741 352.62 196.487 352.62C197.999 352.62 199.655 353.682 199.655 355.77C199.655 357.858 198.215 358.974 196.487 358.974C194.741 358.974 193.391 357.642 193.391 355.77ZM204.97 355.41L209.308 360H210.946L206.392 355.194L209.992 351.594H208.3L204.97 354.924V347.04H203.782V360H204.97V355.41ZM215.681 360.18C217.391 360.18 218.813 359.316 219.515 357.804C219.137 357.714 218.669 357.624 218.309 357.534C217.787 358.452 216.833 358.992 215.681 358.992C214.133 358.992 212.855 357.966 212.657 356.328H219.785C219.803 356.166 219.803 355.968 219.803 355.77C219.803 353.106 218.075 351.414 215.681 351.414C213.287 351.414 211.433 353.106 211.433 355.77C211.433 358.434 213.287 360.18 215.681 360.18ZM212.657 355.212C212.891 353.61 214.097 352.602 215.681 352.602C217.247 352.602 218.345 353.61 218.579 355.212H212.657ZM221.362 357.588C221.416 359.244 222.892 360.18 224.296 360.18C226.042 360.18 227.374 359.172 227.374 357.714C227.374 356.562 226.834 355.644 225.25 355.266L224.098 354.996C223.522 354.852 222.658 354.546 222.856 353.592C222.946 352.998 223.612 352.566 224.422 352.566C225.142 352.566 225.754 352.944 225.898 353.592H227.068C226.834 352.062 225.736 351.414 224.422 351.414C223.054 351.414 221.884 352.206 221.686 353.412C221.452 355.374 222.784 355.914 223.81 356.148L224.98 356.418C225.862 356.634 226.186 357.156 226.186 357.714C226.186 358.506 225.484 359.046 224.404 359.046C222.982 359.046 222.568 358.236 222.424 357.588H221.362ZM235.626 351.594H234.438V360H235.626V351.594ZM234.132 348.462C234.132 348.966 234.546 349.326 235.05 349.326C235.554 349.326 235.968 348.966 235.968 348.462C235.968 347.958 235.554 347.598 235.05 347.598C234.546 347.598 234.132 347.958 234.132 348.462ZM240.298 360V352.674H242.08V351.594H240.298V348.444H239.092V351.594H237.58V352.674H239.092V360H240.298ZM252.173 360.18C253.883 360.18 255.305 359.316 256.007 357.804C255.629 357.714 255.161 357.624 254.801 357.534C254.279 358.452 253.325 358.992 252.173 358.992C250.625 358.992 249.347 357.966 249.149 356.328H256.277C256.295 356.166 256.295 355.968 256.295 355.77C256.295 353.106 254.567 351.414 252.173 351.414C249.779 351.414 247.925 353.106 247.925 355.77C247.925 358.434 249.779 360.18 252.173 360.18ZM249.149 355.212C249.383 353.61 250.589 352.602 252.173 352.602C253.739 352.602 254.837 353.61 255.071 355.212H249.149ZM266.621 351.594H265.415V352.98C264.785 351.918 263.471 351.414 262.247 351.414C259.853 351.414 257.945 353.106 257.945 355.77C257.945 358.434 259.853 360.18 262.247 360.18C263.471 360.18 264.785 359.622 265.415 358.56V360H266.621V351.594ZM259.151 355.77C259.151 353.844 260.501 352.62 262.247 352.62C263.759 352.62 265.415 353.682 265.415 355.77C265.415 357.858 263.975 358.974 262.247 358.974C260.501 358.974 259.151 357.642 259.151 355.77ZM268.876 357.588C268.93 359.244 270.406 360.18 271.81 360.18C273.556 360.18 274.888 359.172 274.888 357.714C274.888 356.562 274.348 355.644 272.764 355.266L271.612 354.996C271.036 354.852 270.172 354.546 270.37 353.592C270.46 352.998 271.126 352.566 271.936 352.566C272.656 352.566 273.268 352.944 273.412 353.592H274.582C274.348 352.062 273.25 351.414 271.936 351.414C270.568 351.414 269.398 352.206 269.2 353.412C268.966 355.374 270.298 355.914 271.324 356.148L272.494 356.418C273.376 356.634 273.7 357.156 273.7 357.714C273.7 358.506 272.998 359.046 271.918 359.046C270.496 359.046 270.082 358.236 269.938 357.588H268.876ZM279.028 364.068L284.248 351.594H282.97L280.108 358.434L277.264 351.594H276.004L279.46 359.982L277.786 364.068H279.028ZM10.4764 378.04H9.57642C7.34442 378.04 6.64242 379.606 6.64242 381.622V382.594H5.00442V383.674H6.64242V391H7.84842V383.674H9.91842V382.594H7.84842V381.622C7.84842 380.506 7.95642 379.174 9.57642 379.174H10.4764V378.04ZM15.522 391.18C17.916 391.18 19.914 389.434 19.914 386.77C19.914 384.106 17.916 382.414 15.522 382.414C13.128 382.414 11.13 384.106 11.13 386.77C11.13 389.434 13.128 391.18 15.522 391.18ZM15.522 389.992C13.776 389.992 12.318 388.714 12.318 386.77C12.318 384.826 13.776 383.602 15.522 383.602C17.268 383.602 18.726 384.826 18.726 386.77C18.726 388.714 17.268 389.992 15.522 389.992ZM27.2389 382.738C27.0769 382.594 26.4469 382.414 25.8709 382.414C24.6469 382.414 23.8729 383.062 23.4589 384.502V382.594H22.2529V391H23.4589V387.868C23.4589 385.636 24.1609 383.62 25.8709 383.62C26.1769 383.62 26.6809 383.71 27.0949 383.908L27.2389 382.738ZM39.3019 387.184C39.3019 389.236 37.8439 389.992 36.5119 389.992C35.2159 389.992 34.4779 389.056 34.4779 387.49V382.594H33.2719V387.49C33.2539 389.794 34.4419 391.18 36.5119 391.18C37.4839 391.18 38.7799 390.712 39.3019 389.614V391H40.5079V382.594H39.3019V387.184ZM42.751 388.588C42.805 390.244 44.281 391.18 45.685 391.18C47.431 391.18 48.763 390.172 48.763 388.714C48.763 387.562 48.223 386.644 46.639 386.266L45.487 385.996C44.911 385.852 44.047 385.546 44.245 384.592C44.335 383.998 45.001 383.566 45.811 383.566C46.531 383.566 47.143 383.944 47.287 384.592H48.457C48.223 383.062 47.125 382.414 45.811 382.414C44.443 382.414 43.273 383.206 43.075 384.412C42.841 386.374 44.173 386.914 45.199 387.148L46.369 387.418C47.251 387.634 47.575 388.156 47.575 388.714C47.575 389.506 46.873 390.046 45.793 390.046C44.371 390.046 43.957 389.236 43.813 388.588H42.751ZM54.7179 391.18C56.4279 391.18 57.8499 390.316 58.5519 388.804C58.1739 388.714 57.7059 388.624 57.3459 388.534C56.8239 389.452 55.8699 389.992 54.7179 389.992C53.1699 389.992 51.8919 388.966 51.6939 387.328H58.8219C58.8399 387.166 58.8399 386.968 58.8399 386.77C58.8399 384.106 57.1119 382.414 54.7179 382.414C52.3239 382.414 50.4699 384.106 50.4699 386.77C50.4699 389.434 52.3239 391.18 54.7179 391.18ZM51.6939 386.212C51.9279 384.61 53.1339 383.602 54.7179 383.602C56.2839 383.602 57.3819 384.61 57.6159 386.212H51.6939ZM66.0514 382.738C65.8894 382.594 65.2594 382.414 64.6834 382.414C63.4594 382.414 62.6854 383.062 62.2714 384.502V382.594H61.0654V391H62.2714V387.868C62.2714 385.636 62.9734 383.62 64.6834 383.62C64.9894 383.62 65.4934 383.71 65.9074 383.908L66.0514 382.738ZM67.1846 388.588C67.2386 390.244 68.7146 391.18 70.1186 391.18C71.8646 391.18 73.1966 390.172 73.1966 388.714C73.1966 387.562 72.6566 386.644 71.0726 386.266L69.9206 385.996C69.3446 385.852 68.4806 385.546 68.6786 384.592C68.7686 383.998 69.4346 383.566 70.2446 383.566C70.9646 383.566 71.5766 383.944 71.7206 384.592H72.8906C72.6566 383.062 71.5586 382.414 70.2446 382.414C68.8766 382.414 67.7066 383.206 67.5086 384.412C67.2746 386.374 68.6066 386.914 69.6326 387.148L70.8026 387.418C71.6846 387.634 72.0086 388.156 72.0086 388.714C72.0086 389.506 71.3066 390.046 70.2266 390.046C68.8046 390.046 68.3906 389.236 68.2466 388.588H67.1846ZM82.0247 391V383.674H83.8067V382.594H82.0247V379.444H80.8187V382.594H79.3067V383.674H80.8187V391H82.0247ZM89.4556 391.18C91.8496 391.18 93.8476 389.434 93.8476 386.77C93.8476 384.106 91.8496 382.414 89.4556 382.414C87.0616 382.414 85.0636 384.106 85.0636 386.77C85.0636 389.434 87.0616 391.18 89.4556 391.18ZM89.4556 389.992C87.7096 389.992 86.2516 388.714 86.2516 386.77C86.2516 384.826 87.7096 383.602 89.4556 383.602C91.2016 383.602 92.6596 384.826 92.6596 386.77C92.6596 388.714 91.2016 389.992 89.4556 389.992ZM100.302 388.588C100.356 390.244 101.832 391.18 103.236 391.18C104.982 391.18 106.314 390.172 106.314 388.714C106.314 387.562 105.774 386.644 104.19 386.266L103.038 385.996C102.462 385.852 101.598 385.546 101.796 384.592C101.886 383.998 102.552 383.566 103.362 383.566C104.082 383.566 104.694 383.944 104.838 384.592H106.008C105.774 383.062 104.676 382.414 103.362 382.414C101.994 382.414 100.824 383.206 100.626 384.412C100.392 386.374 101.724 386.914 102.75 387.148L103.92 387.418C104.802 387.634 105.126 388.156 105.126 388.714C105.126 389.506 104.424 390.046 103.344 390.046C101.922 390.046 101.508 389.236 101.364 388.588H100.302ZM114.591 389.182C113.997 389.722 113.259 389.992 112.413 389.992C110.667 389.992 109.209 388.714 109.209 386.77C109.209 384.826 110.667 383.602 112.413 383.602C113.259 383.602 114.015 383.89 114.591 384.394L115.437 383.548C114.645 382.828 113.583 382.414 112.413 382.414C110.019 382.414 108.021 384.106 108.021 386.77C108.021 389.434 110.019 391.18 112.413 391.18C113.583 391.18 114.663 390.766 115.455 390.028L114.591 389.182ZM118.873 386.41C118.873 384.358 120.331 383.602 121.663 383.602C122.959 383.602 123.697 384.538 123.697 386.104V391H124.903V386.104C124.921 383.8 123.733 382.414 121.663 382.414C120.691 382.414 119.395 382.882 118.873 383.98V378.04H117.667V391H118.873V386.41ZM131.376 391.18C133.086 391.18 134.508 390.316 135.21 388.804C134.832 388.714 134.364 388.624 134.004 388.534C133.482 389.452 132.528 389.992 131.376 389.992C129.828 389.992 128.55 388.966 128.352 387.328H135.48C135.498 387.166 135.498 386.968 135.498 386.77C135.498 384.106 133.77 382.414 131.376 382.414C128.982 382.414 127.128 384.106 127.128 386.77C127.128 389.434 128.982 391.18 131.376 391.18ZM128.352 386.212C128.586 384.61 129.792 383.602 131.376 383.602C132.942 383.602 134.04 384.61 134.274 386.212H128.352ZM145.824 378.04H144.618V383.98C143.988 382.918 142.674 382.414 141.45 382.414C139.056 382.414 137.148 384.106 137.148 386.77C137.148 389.434 139.056 391.18 141.45 391.18C142.674 391.18 143.988 390.622 144.618 389.56V391H145.824V378.04ZM138.354 386.77C138.354 384.844 139.704 383.62 141.45 383.62C142.962 383.62 144.618 384.682 144.618 386.77C144.618 388.858 143.178 389.974 141.45 389.974C139.704 389.974 138.354 388.642 138.354 386.77ZM154.667 387.184C154.667 389.236 153.209 389.992 151.877 389.992C150.581 389.992 149.843 389.056 149.843 387.49V382.594H148.637V387.49C148.619 389.794 149.807 391.18 151.877 391.18C152.849 391.18 154.145 390.712 154.667 389.614V391H155.873V382.594H154.667V387.184ZM159.97 378.04H158.782V391H159.97V378.04ZM166.55 391.18C168.26 391.18 169.682 390.316 170.384 388.804C170.006 388.714 169.538 388.624 169.178 388.534C168.656 389.452 167.702 389.992 166.55 389.992C165.002 389.992 163.724 388.966 163.526 387.328H170.654C170.672 387.166 170.672 386.968 170.672 386.77C170.672 384.106 168.944 382.414 166.55 382.414C164.156 382.414 162.302 384.106 162.302 386.77C162.302 389.434 164.156 391.18 166.55 391.18ZM163.526 386.212C163.76 384.61 164.966 383.602 166.55 383.602C168.116 383.602 169.214 384.61 169.448 386.212H163.526ZM177.199 394.006C175.039 394.006 173.599 391.36 173.599 386.824C173.599 382.234 175.039 379.642 177.199 379.642V378.454C174.319 378.454 172.411 381.478 172.411 386.824C172.411 392.098 174.319 395.194 177.199 395.194V394.006ZM182.23 391.18C183.94 391.18 185.362 390.316 186.064 388.804C185.686 388.714 185.218 388.624 184.858 388.534C184.336 389.452 183.382 389.992 182.23 389.992C180.682 389.992 179.404 388.966 179.206 387.328H186.334C186.352 387.166 186.352 386.968 186.352 386.77C186.352 384.106 184.624 382.414 182.23 382.414C179.836 382.414 177.982 384.106 177.982 386.77C177.982 389.434 179.836 391.18 182.23 391.18ZM179.206 386.212C179.44 384.61 180.646 383.602 182.23 383.602C183.796 383.602 184.894 384.61 185.128 386.212H179.206ZM196.677 378.04H195.471V383.98C194.841 382.918 193.527 382.414 192.303 382.414C189.909 382.414 188.001 384.106 188.001 386.77C188.001 389.434 189.909 391.18 192.303 391.18C193.527 391.18 194.841 390.622 195.471 389.56V391H196.677V378.04ZM189.207 386.77C189.207 384.844 190.557 383.62 192.303 383.62C193.815 383.62 195.471 384.682 195.471 386.77C195.471 388.858 194.031 389.974 192.303 389.974C190.557 389.974 189.207 388.642 189.207 386.77ZM200.787 382.594H199.599V391H200.787V382.594ZM199.293 379.462C199.293 379.966 199.707 380.326 200.211 380.326C200.715 380.326 201.129 379.966 201.129 379.462C201.129 378.958 200.715 378.598 200.211 378.598C199.707 378.598 199.293 378.958 199.293 379.462ZM205.458 391V383.674H207.24V382.594H205.458V379.444H204.252V382.594H202.74V383.674H204.252V391H205.458ZM208.681 393.376C209.401 392.782 210.229 391.414 210.373 389.326H208.987C209.041 391 208.501 392.206 207.853 393.124L208.681 393.376ZM219.286 389.182C218.692 389.722 217.954 389.992 217.108 389.992C215.362 389.992 213.904 388.714 213.904 386.77C213.904 384.826 215.362 383.602 217.108 383.602C217.954 383.602 218.71 383.89 219.286 384.394L220.132 383.548C219.34 382.828 218.278 382.414 217.108 382.414C214.714 382.414 212.716 384.106 212.716 386.77C212.716 389.434 214.714 391.18 217.108 391.18C218.278 391.18 219.358 390.766 220.15 390.028L219.286 389.182ZM230.199 382.594H228.993V383.98C228.363 382.918 227.049 382.414 225.825 382.414C223.431 382.414 221.523 384.106 221.523 386.77C221.523 389.434 223.431 391.18 225.825 391.18C227.049 391.18 228.363 390.622 228.993 389.56V391H230.199V382.594ZM222.729 386.77C222.729 384.844 224.079 383.62 225.825 383.62C227.337 383.62 228.993 384.682 228.993 386.77C228.993 388.858 227.553 389.974 225.825 389.974C224.079 389.974 222.729 388.642 222.729 386.77ZM234.326 386.41C234.326 384.358 235.784 383.602 237.116 383.602C238.412 383.602 239.15 384.538 239.15 386.104V391H240.356V386.104C240.374 383.8 239.186 382.414 237.116 382.414C236.144 382.414 234.848 382.882 234.326 383.98V382.594H233.12V391H234.326V386.41ZM249.151 389.182C248.557 389.722 247.819 389.992 246.973 389.992C245.227 389.992 243.769 388.714 243.769 386.77C243.769 384.826 245.227 383.602 246.973 383.602C247.819 383.602 248.575 383.89 249.151 384.394L249.997 383.548C249.205 382.828 248.143 382.414 246.973 382.414C244.579 382.414 242.581 384.106 242.581 386.77C242.581 389.434 244.579 391.18 246.973 391.18C248.143 391.18 249.223 390.766 250.015 390.028L249.151 389.182ZM255.636 391.18C257.346 391.18 258.768 390.316 259.47 388.804C259.092 388.714 258.624 388.624 258.264 388.534C257.742 389.452 256.788 389.992 255.636 389.992C254.088 389.992 252.81 388.966 252.612 387.328H259.74C259.758 387.166 259.758 386.968 259.758 386.77C259.758 384.106 258.03 382.414 255.636 382.414C253.242 382.414 251.388 384.106 251.388 386.77C251.388 389.434 253.242 391.18 255.636 391.18ZM252.612 386.212C252.846 384.61 254.052 383.602 255.636 383.602C257.202 383.602 258.3 384.61 258.534 386.212H252.612ZM263.171 378.04H261.983V391H263.171V378.04ZM274.676 391.18C277.07 391.18 279.068 389.434 279.068 386.77C279.068 384.106 277.07 382.414 274.676 382.414C272.282 382.414 270.284 384.106 270.284 386.77C270.284 389.434 272.282 391.18 274.676 391.18ZM274.676 389.992C272.93 389.992 271.472 388.714 271.472 386.77C271.472 384.826 272.93 383.602 274.676 383.602C276.422 383.602 277.88 384.826 277.88 386.77C277.88 388.714 276.422 389.992 274.676 389.992ZM286.393 382.738C286.231 382.594 285.601 382.414 285.025 382.414C283.801 382.414 283.027 383.062 282.613 384.502V382.594H281.407V391H282.613V387.868C282.613 385.636 283.315 383.62 285.025 383.62C285.331 383.62 285.835 383.71 286.249 383.908L286.393 382.738ZM14.3393 409.04H13.1333V414.98C12.5033 413.918 11.1893 413.414 9.96525 413.414C7.57125 413.414 5.66325 415.106 5.66325 417.77C5.66325 420.434 7.57125 422.18 9.96525 422.18C11.1893 422.18 12.5033 421.622 13.1333 420.56V422H14.3393V409.04ZM6.86925 417.77C6.86925 415.844 8.21925 414.62 9.96525 414.62C11.4773 414.62 13.1333 415.682 13.1333 417.77C13.1333 419.858 11.6933 420.974 9.96525 420.974C8.21925 420.974 6.86925 419.642 6.86925 417.77ZM20.9327 422.18C22.6427 422.18 24.0647 421.316 24.7667 419.804C24.3887 419.714 23.9207 419.624 23.5607 419.534C23.0387 420.452 22.0847 420.992 20.9327 420.992C19.3847 420.992 18.1067 419.966 17.9087 418.328H25.0367C25.0547 418.166 25.0547 417.968 25.0547 417.77C25.0547 415.106 23.3267 413.414 20.9327 413.414C18.5387 413.414 16.6847 415.106 16.6847 417.77C16.6847 420.434 18.5387 422.18 20.9327 422.18ZM17.9087 417.212C18.1427 415.61 19.3487 414.602 20.9327 414.602C22.4987 414.602 23.5967 415.61 23.8307 417.212H17.9087ZM28.4683 409.04H27.2803V422H28.4683V409.04ZM35.048 422.18C36.758 422.18 38.18 421.316 38.882 419.804C38.504 419.714 38.036 419.624 37.676 419.534C37.154 420.452 36.2 420.992 35.048 420.992C33.5 420.992 32.222 419.966 32.024 418.328H39.152C39.17 418.166 39.17 417.968 39.17 417.77C39.17 415.106 37.442 413.414 35.048 413.414C32.654 413.414 30.8 415.106 30.8 417.77C30.8 420.434 32.654 422.18 35.048 422.18ZM32.024 417.212C32.258 415.61 33.464 414.602 35.048 414.602C36.614 414.602 37.712 415.61 37.946 417.212H32.024ZM43.1595 422V414.674H44.9415V413.594H43.1595V410.444H41.9535V413.594H40.4415V414.674H41.9535V422H43.1595ZM50.4464 422.18C52.1564 422.18 53.5784 421.316 54.2804 419.804C53.9024 419.714 53.4344 419.624 53.0744 419.534C52.5524 420.452 51.5984 420.992 50.4464 420.992C48.8984 420.992 47.6204 419.966 47.4224 418.328H54.5504C54.5684 418.166 54.5684 417.968 54.5684 417.77C54.5684 415.106 52.8404 413.414 50.4464 413.414C48.0524 413.414 46.1984 415.106 46.1984 417.77C46.1984 420.434 48.0524 422.18 50.4464 422.18ZM47.4224 417.212C47.6564 415.61 48.8624 414.602 50.4464 414.602C52.0124 414.602 53.1104 415.61 53.3444 417.212H47.4224ZM55.3005 426.194C58.1805 426.194 60.0885 423.098 60.0885 417.824C60.0885 412.478 58.1805 409.454 55.3005 409.454V410.642C57.4605 410.642 58.9005 413.234 58.9005 417.824C58.9005 422.36 57.4605 425.006 55.3005 425.006V426.194ZM67.3057 426.068H68.5117V420.632C69.1417 421.712 70.4377 422.18 71.6797 422.18C74.0737 422.18 75.9817 420.506 75.9817 417.842C75.9817 415.178 74.0737 413.414 71.6797 413.414C70.4557 413.414 69.1417 413.99 68.5117 415.052V413.594H67.3057V426.068ZM74.7757 417.842C74.7757 419.786 73.4257 420.974 71.6797 420.974C70.1677 420.974 68.5117 419.912 68.5117 417.842C68.5117 415.772 69.9517 414.62 71.6797 414.62C73.4257 414.62 74.7757 415.97 74.7757 417.842ZM86.4271 413.594H85.2211V414.98C84.5911 413.918 83.2771 413.414 82.0531 413.414C79.6591 413.414 77.7511 415.106 77.7511 417.77C77.7511 420.434 79.6591 422.18 82.0531 422.18C83.2771 422.18 84.5911 421.622 85.2211 420.56V422H86.4271V413.594ZM78.9571 417.77C78.9571 415.844 80.3071 414.62 82.0531 414.62C83.5651 414.62 85.2211 415.682 85.2211 417.77C85.2211 419.858 83.7811 420.974 82.0531 420.974C80.3071 420.974 78.9571 419.642 78.9571 417.77ZM91.3466 426.068L96.5666 413.594H95.2886L92.4266 420.434L89.5826 413.594H88.3226L91.7786 421.982L90.1046 426.068H91.3466ZM105.673 417.41C105.673 415.358 107.131 414.602 108.463 414.602C109.759 414.602 110.497 415.538 110.497 417.104V422H111.703V417.104C111.721 414.8 110.533 413.414 108.463 413.414C107.617 413.414 106.123 413.666 105.349 415.25C104.863 414.08 103.873 413.414 102.433 413.414C101.659 413.414 100.165 413.882 99.6425 414.98V413.594H98.4365V422H99.6425V417.41C99.6425 415.358 101.101 414.602 102.433 414.602C103.729 414.602 104.467 415.538 104.467 417.104V422H105.673V417.41ZM118.175 422.18C119.885 422.18 121.307 421.316 122.009 419.804C121.631 419.714 121.163 419.624 120.803 419.534C120.281 420.452 119.327 420.992 118.175 420.992C116.627 420.992 115.349 419.966 115.151 418.328H122.279C122.297 418.166 122.297 417.968 122.297 417.77C122.297 415.106 120.569 413.414 118.175 413.414C115.781 413.414 113.927 415.106 113.927 417.77C113.927 420.434 115.781 422.18 118.175 422.18ZM115.151 417.212C115.385 415.61 116.591 414.602 118.175 414.602C119.741 414.602 120.839 415.61 121.073 417.212H115.151ZM125.728 417.41C125.728 415.358 127.186 414.602 128.518 414.602C129.814 414.602 130.552 415.538 130.552 417.104V422H131.758V417.104C131.776 414.8 130.588 413.414 128.518 413.414C127.546 413.414 126.25 413.882 125.728 414.98V413.594H124.522V422H125.728V417.41ZM136.324 422V414.674H138.106V413.594H136.324V410.444H135.118V413.594H133.606V414.674H135.118V422H136.324Z" fill="white"/>
<path d="M956.161 1.842H952.927V10.906L947.735 1.842H944.787V17H947.999V7.826L953.279 17H956.161V1.842ZM963.816 14.184C962.562 14.184 961.506 13.26 961.506 11.83C961.506 10.422 962.562 9.498 963.816 9.498C965.114 9.498 966.148 10.422 966.148 11.83C966.148 13.26 965.114 14.184 963.816 14.184ZM963.816 17.176C966.72 17.176 969.162 15.064 969.162 11.83C969.162 8.574 966.72 6.506 963.816 6.506C960.89 6.506 958.492 8.574 958.492 11.83C958.492 15.064 960.89 17.176 963.816 17.176ZM981.719 2.392L976.175 5.032V7.738L978.639 6.682V17H981.719V2.392ZM984.776 15.372C984.776 16.45 985.634 17.22 986.668 17.22C987.702 17.22 988.582 16.45 988.582 15.372C988.582 14.316 987.702 13.546 986.668 13.546C985.634 13.546 984.776 14.316 984.776 15.372ZM999.57 6.726H996.534V17H999.57V6.726ZM996.138 2.92C996.138 3.91 997.018 4.724 998.052 4.724C999.108 4.724 999.922 3.91 999.922 2.92C999.922 1.886 999.086 1.138 998.052 1.138C997.018 1.138 996.138 1.908 996.138 2.92ZM1005.44 11.566C1005.44 10.004 1006.25 9.476 1007.33 9.476C1008.36 9.476 1009.11 10.136 1009.11 11.522V17H1012.17V10.862C1012.17 7.936 1010.72 6.506 1008.41 6.506C1007.17 6.506 1005.99 7.188 1005.44 8.222V6.726H1002.38V17H1005.44V11.566ZM1024.26 6.726V2.788H1021.22V6.726H1019.35V9.146H1021.22V17H1024.26V9.146H1026.41V6.726H1024.26ZM1031.35 11.566C1031.35 10.004 1032.42 9.476 1033.39 9.476C1034.34 9.476 1035.28 10.18 1035.28 11.522V17H1038.34V11.412C1038.34 8.31 1036.96 6.506 1034.23 6.506C1033.26 6.506 1031.74 7.056 1031.35 8.332V1.138H1028.29V17H1031.35V11.566ZM1048.24 13.612C1047.74 14.294 1046.86 14.58 1046 14.58C1044.9 14.58 1043.65 14.052 1043.47 12.864H1050.99C1051.02 12.6 1051.04 12.182 1051.04 11.918C1051.04 8.684 1048.71 6.506 1045.78 6.506C1042.85 6.506 1040.41 8.574 1040.41 11.83C1040.41 15.064 1042.85 17.22 1045.78 17.22C1047.54 17.22 1049.41 16.67 1050.47 15.13L1048.24 13.612ZM1043.51 10.95C1043.76 9.63 1044.97 9.19 1045.8 9.19C1046.68 9.19 1047.78 9.696 1047.96 10.95H1043.51ZM1061.53 6.726H1058.49V17H1061.53V6.726ZM1058.1 2.92C1058.1 3.91 1058.98 4.724 1060.01 4.724C1061.07 4.724 1061.88 3.91 1061.88 2.92C1061.88 1.886 1061.05 1.138 1060.01 1.138C1058.98 1.138 1058.1 1.908 1058.1 2.92ZM1067.4 11.566C1067.4 10.004 1068.21 9.476 1069.29 9.476C1070.32 9.476 1071.07 10.136 1071.07 11.522V17H1074.13V10.862C1074.13 7.936 1072.68 6.506 1070.37 6.506C1069.13 6.506 1067.95 7.188 1067.4 8.222V6.726H1064.34V17H1067.4V11.566ZM1084.17 11.83C1084.17 13.326 1083.09 14.316 1081.79 14.316C1080.49 14.316 1079.42 13.348 1079.42 11.83C1079.42 10.334 1080.47 9.388 1081.79 9.388C1083.02 9.388 1084.17 10.312 1084.17 11.83ZM1087.27 17V1.138H1084.23V7.98C1083.73 7.034 1082.52 6.506 1081.22 6.506C1078.58 6.506 1076.25 8.596 1076.25 11.896C1076.25 15.152 1078.58 17.22 1081.22 17.22C1082.52 17.22 1083.73 16.67 1084.23 15.724V17H1087.27ZM1096.7 12.16C1096.7 13.722 1095.8 14.25 1094.85 14.25C1094.15 14.25 1093.02 13.854 1093.02 12.204V6.726H1089.97V12.864C1089.97 15.79 1091.73 17.22 1094.04 17.22C1095.03 17.22 1096.15 16.626 1096.7 15.592V17H1099.76V6.726H1096.7V12.16ZM1106.58 13.128C1107.35 13.326 1107.6 13.568 1107.6 14.008C1107.6 14.536 1107.02 14.844 1106.34 14.866C1105.48 14.866 1104.85 14.272 1104.82 13.678H1101.96C1101.96 15.966 1104.19 17.22 1106.25 17.22C1108.41 17.22 1110.7 16.186 1110.7 14.008C1110.7 13.326 1110.39 11.72 1107.9 11.016L1106.17 10.554C1105.55 10.4 1105.29 10.114 1105.26 9.784C1105.24 9.322 1105.66 9.014 1106.34 9.014C1106.85 9.014 1107.49 9.146 1107.51 9.916H1110.39C1110.39 7.386 1108.19 6.506 1106.17 6.506C1104.01 6.506 1102.16 7.914 1102.16 9.432C1102.16 10.378 1102.14 11.962 1105.24 12.776L1106.58 13.128ZM1116.85 6.726V2.788H1113.82V6.726H1111.95V9.146H1113.82V17H1116.85V9.146H1119.01V6.726H1116.85ZM1123.94 13.414C1123.94 10.686 1124.74 9.322 1126.5 9.322C1127 9.322 1127.51 9.366 1128.06 9.63L1128.61 6.88C1128.1 6.638 1127.57 6.506 1126.85 6.506C1125.79 6.506 1124.47 7.298 1123.94 9.212V6.726H1120.89V17H1123.94V13.414ZM1139.91 6.726H1136.66L1134.37 12.556L1132.1 6.726H1128.85L1132.81 15.944L1130.34 22.038H1133.58L1139.91 6.726Z" fill="white"/>
<path fill-rule="evenodd" clip-rule="evenodd" d="M299.292 96.6969C300.311 95.6708 300.926 94.346 300.926 92.8997C300.926 89.6414 297.808 87 293.963 87C290.117 87 287 89.6414 287 92.8997C287 96.158 290.117 98.7994 293.963 98.7994C295.707 98.7994 297.302 98.2558 298.524 97.3577L515.287 255.515L516 254.813L299.292 96.6969Z" fill="white"/>
<path fill-rule="evenodd" clip-rule="evenodd" d="M786.227 83.9273C787.318 85.0262 788.792 85.7688 790.466 85.9337C794.235 86.3049 797.586 83.6039 797.951 79.9008C798.316 76.1978 795.556 72.8948 791.786 72.5236C788.017 72.1523 784.666 74.8533 784.301 78.5564C784.133 80.2603 784.627 81.8794 785.576 83.1673L582.063 273.879L582.76 274.596L786.227 83.9273Z" fill="white"/>
<path fill-rule="evenodd" clip-rule="evenodd" d="M298.895 361.109C298.526 359.939 297.758 358.885 296.64 358.17C294.122 356.557 290.787 357.273 289.189 359.767C287.592 362.261 288.338 365.59 290.855 367.202C293.373 368.815 296.709 368.1 298.306 365.605C299.001 364.521 299.252 363.279 299.108 362.088L511.377 299.739L511.086 298.782L298.895 361.109Z" fill="white"/>
<path fill-rule="evenodd" clip-rule="evenodd" d="M783.027 288.555C783.224 289.645 783.79 290.713 784.706 291.555C786.769 293.453 789.827 293.484 791.536 291.626C793.245 289.767 792.958 286.723 790.895 284.825C788.831 282.928 785.773 282.896 784.064 284.755C783.343 285.538 782.978 286.533 782.95 287.563L586.415 300.225L586.582 301.211L783.027 288.555Z" fill="white"/>
<circle cx="570" cy="277" r="118" fill="#05E1E1" fill-opacity="0.06"/>
<circle cx="570.645" cy="277.645" r="101.88" fill="#05E1E1" fill-opacity="0.03"/>
<circle cx="570" cy="277" r="72.8634" fill="#05E1E1"/>
</svg>
