<svg width="95" height="95" viewBox="0 0 95 95" fill="none" xmlns="http://www.w3.org/2000/svg">
<rect width="95" height="95" rx="14.6154" fill="white"/>
<path fill-rule="evenodd" clip-rule="evenodd" d="M24.4214 76.2744H57.5544C60.2619 76.2744 62.7196 75.1749 63.5793 73.7014C63.6289 73.9317 63.6374 74.1707 63.5998 74.4155L63.7717 73.2946C63.8218 73.1573 63.8581 73.018 63.8799 72.8764L65.5684 61.8484C65.1941 61.8947 64.8128 61.9188 64.4267 61.9188H26.6771C23.5571 62.0839 20.8156 63.801 20.1498 65.97L19.8956 67.6293C19.874 67.771 19.8676 67.9105 19.8757 68.0476L19.1365 72.8764C18.8504 74.7453 21.2287 76.2742 24.4212 76.2742L24.4214 76.2744ZM65.4262 40.2783C65.0189 40.1641 64.5796 40.0793 64.116 40.0278C64.4194 40.1977 64.7737 40.2957 65.1523 40.2957C65.2452 40.2957 65.3369 40.2897 65.4264 40.2783H65.4262Z" fill="#06D2DD"/>
<path fill-rule="evenodd" clip-rule="evenodd" d="M32.7855 18.7261H70.0459C73.6364 18.7261 76.2975 20.8103 75.9594 23.358L71.5685 56.4315C71.2304 58.9792 68.0159 61.0634 64.4253 61.0634H26.6757C23.2876 61.2424 20.3462 63.2517 20.0234 65.6823L20.6365 61.0634L25.6423 23.358C25.9804 20.8103 29.1949 18.7261 32.7853 18.7261L32.7855 18.7261ZM65.1507 35.6192C66.2716 35.6192 67.1801 36.4746 67.1801 37.5297C67.1801 38.5848 66.2716 39.4399 65.1507 39.4399C64.03 39.4399 63.1215 38.5848 63.1215 37.5297C63.1215 36.4746 64.03 35.6192 65.1507 35.6192Z" fill="#005BFC"/>
</svg>
