<svg width="24" height="24" viewBox="0 0 24 24" fill="none" xmlns="http://www.w3.org/2000/svg">
<path d="M17.7099 16.2899C17.8982 16.4782 18.004 16.7336 18.004 16.9999C18.004 17.2662 17.8982 17.5216 17.7099 17.7099C17.5216 17.8982 17.2662 18.004 16.9999 18.004C16.7336 18.004 16.4782 17.8982 16.2899 17.7099L11.9999 13.4099L7.70994 17.7099C7.52164 17.8982 7.26624 18.004 6.99994 18.004C6.73364 18.004 6.47825 17.8982 6.28994 17.7099C6.10164 17.5216 5.99585 17.2662 5.99585 16.9999C5.99585 16.7336 6.10164 16.4782 6.28994 16.2899L10.5899 11.9999L6.28994 7.70994C6.10164 7.52164 5.99585 7.26624 5.99585 6.99994C5.99585 6.73364 6.10164 6.47825 6.28994 6.28994C6.47825 6.10164 6.73364 5.99585 6.99994 5.99585C7.26624 5.99585 7.52164 6.10164 7.70994 6.28994L11.9999 10.5899L16.2899 6.28994C16.4782 6.10164 16.7336 5.99585 16.9999 5.99585C17.2662 5.99585 17.5216 6.10164 17.7099 6.28994C17.8982 6.47825 18.004 6.73364 18.004 6.99994C18.004 7.26624 17.8982 7.52164 17.7099 7.70994L13.4099 11.9999L17.7099 16.2899Z" fill="white"/>
</svg>
