<svg width="150" height="55" viewBox="0 0 150 55" fill="none" xmlns="http://www.w3.org/2000/svg">
<path d="M64.4327 13.7632V44.32H68.3154V31.1188H82.2931V27.275H68.3154V17.6459H84.9333V13.7632H64.4327ZM98.1344 21.5286C96.0378 21.5286 94.1353 22.0333 92.4269 23.0816C90.6797 24.0911 89.3207 25.4889 88.2724 27.1973C87.2241 28.9445 86.7193 30.847 86.7193 32.9437C86.7193 35.0403 87.2241 36.9429 88.2724 38.6512C89.3207 40.3984 90.6797 41.7574 92.4269 42.8057C94.1353 43.8152 96.0378 44.32 98.1344 44.32C99.571 44.32 100.93 44.087 102.211 43.5823C103.493 43.0775 104.657 42.3786 105.667 41.4856V44.32H109.55V32.9437C109.55 30.8082 109.006 28.9057 107.996 27.1973C106.948 25.4501 105.589 24.0911 103.881 23.0816C102.134 22.0333 100.231 21.5286 98.1344 21.5286ZM98.1344 25.4113C99.5322 25.4113 100.813 25.7219 101.939 26.4208C103.065 27.0808 103.997 28.0127 104.657 29.1386C105.356 30.2646 105.667 31.5459 105.667 32.9437C105.667 34.3026 105.356 35.5839 104.657 36.7099C103.997 37.8747 103.065 38.7677 101.939 39.4666C100.813 40.1267 99.5322 40.4761 98.1344 40.4761C96.7367 40.4761 95.4942 40.1267 94.3294 39.4666C93.2034 38.7677 92.3104 37.8747 91.6115 36.7099C90.9515 35.5839 90.602 34.3026 90.602 32.9437C90.602 31.5459 90.9515 30.2646 91.6115 29.1386C92.3104 28.0127 93.2034 27.0808 94.3294 26.4208C95.4942 25.7219 96.7367 25.4113 98.1344 25.4113ZM113.821 21.5286V44.32H117.703V32.9437C117.703 31.5459 118.014 30.2646 118.713 29.1386C119.373 28.0127 120.266 27.0808 121.431 26.4208C122.557 25.7219 123.838 25.4113 125.236 25.4113V21.5286C123.76 21.5286 122.44 21.7615 121.159 22.2663C119.839 22.771 118.713 23.4699 117.703 24.3629V21.5286H113.821ZM138.437 21.5286C136.379 21.5286 134.438 22.0333 132.729 23.0816C130.982 24.0911 129.623 25.4889 128.575 27.1973C127.565 28.9445 127.022 30.847 127.022 32.9437C127.022 35.0403 127.565 36.9429 128.575 38.6512C129.623 40.3984 130.982 41.7574 132.729 42.8057C134.438 43.8152 136.379 44.32 138.437 44.32C139.873 44.32 141.271 44.087 142.552 43.5823C143.795 43.0775 144.96 42.3786 145.969 41.4856V44.32H149.852V32.9437C149.852 30.8082 149.308 28.9057 148.299 27.1973C147.25 25.4501 145.892 24.0911 144.183 23.0816C142.475 22.0333 140.533 21.5286 138.437 21.5286ZM138.437 25.4113C139.835 25.4113 141.116 25.7219 142.242 26.4208C143.368 27.0808 144.3 28.0127 144.96 29.1386C145.659 30.2646 145.969 31.5459 145.969 32.9437C145.969 34.3026 145.659 35.5839 144.96 36.7099C144.3 37.8747 143.368 38.7677 142.242 39.4666C141.116 40.1267 139.835 40.4761 138.437 40.4761C137.039 40.4761 135.797 40.1267 134.632 39.4666C133.506 38.7677 132.613 37.8747 131.914 36.7099C131.254 35.5839 130.943 34.3026 130.943 32.9437C130.943 31.5459 131.254 30.2646 131.914 29.1386C132.613 28.0127 133.506 27.0808 134.632 26.4208C135.797 25.7219 137.039 25.4113 138.437 25.4113Z" fill="white"/>
<path fill-rule="evenodd" clip-rule="evenodd" d="M5.43868 7.07332L32.5787 0.200951C39.3734 -1.54626 41.043 8.62639 34.0929 10.3736L8.19539 16.8965C4.39036 18.4108 2.87611 20.4298 1.78895 22.5264C0.352357 19.1873 -2.7538 9.16997 5.43868 7.07332Z" fill="white"/>
<path fill-rule="evenodd" clip-rule="evenodd" d="M50.787 8.95215H50.2434V48.3615H50.787V8.95215Z" fill="white"/>
<path fill-rule="evenodd" clip-rule="evenodd" d="M9.38985 50.5053L9.35102 50.3888L7.83678 43.4776C6.90493 39.129 6.90493 35.7123 7.40968 33.9651C8.22504 31.053 9.73929 28.7234 12.0689 27.0539C14.3985 25.3455 17.9318 23.9477 22.591 22.8606L28.1044 21.6181C32.0648 21.0745 34.3167 27.0927 29.6963 28.6846L25.3089 29.6941C21.3485 30.6648 18.9024 31.6354 17.8541 32.412C15.8739 33.9262 15.0974 36.1782 15.8351 39.362L17.9318 48.5251C19.2519 53.4173 11.0206 56.4458 9.38985 50.5053Z" fill="white"/>
<path d="M8.48899 51.4455L8.45016 51.2901L6.23703 43.3306C4.80043 38.2831 4.6063 34.284 5.07222 32.2261C5.80993 28.7705 7.40184 25.975 10.0421 23.8395C12.6435 21.6652 16.6815 19.8403 22.0784 18.2484L28.3684 16.3847C32.9888 15.4917 36.0561 22.3641 30.7368 24.5384L25.6893 26.0138C21.1466 27.4116 18.351 28.7317 17.1862 29.7024C14.9731 31.6049 14.1965 34.3228 15.2449 37.9725L18.3122 48.4946C20.2147 54.1245 10.8186 58.279 8.48899 51.4455Z" fill="white"/>
</svg>
