<svg width="142" height="55" viewBox="0 0 142 55" fill="none" xmlns="http://www.w3.org/2000/svg">
<path d="M32.7358 19.2798C31.7423 19.0841 30.7327 18.9823 29.7201 18.9756H29.2792V22.4542H29.7201C30.7371 22.4525 31.7502 22.5784 32.7358 22.8289C35.6494 23.5644 38.1939 25.3392 39.8906 27.8194C41.5873 30.2996 42.3192 33.3143 41.9486 36.2964C41.5781 39.2785 40.1307 42.0224 37.8786 44.012C35.6266 46.0016 32.7251 47.0997 29.7201 47.0997H16.2554V40.1646H15.8146C14.7917 40.1673 13.7726 40.0414 12.7812 39.7898V50.596H29.7201C33.6404 50.5842 37.4163 49.1156 40.3143 46.4754C43.2122 43.8353 45.0253 40.2121 45.4013 36.3099C45.7772 32.4077 44.6891 28.5051 42.3485 25.3602C40.0078 22.2154 36.5817 20.053 32.7358 19.293V19.2798Z" fill="white"/>
<path d="M14.1024 1.66992C12.7336 1.6702 11.3956 2.07631 10.2575 2.83692C9.11947 3.59753 8.23248 4.67848 7.7087 5.94313C7.18491 7.20777 7.04783 8.59932 7.3148 9.94186C7.58177 11.2844 8.24079 12.5176 9.20856 13.4857C6.16921 14.8811 3.65095 17.2048 2.01626 20.1224C0.381566 23.04 -0.285262 26.4011 0.111753 29.7218C0.508768 33.0425 1.94915 36.1516 4.22558 38.6016C6.50202 41.0517 9.4971 42.7162 12.7797 43.3558C13.7768 43.5453 14.7893 43.6413 15.8042 43.6423H16.2451V40.1637H15.8042C14.7844 40.1657 13.7683 40.0398 12.7797 39.789C9.89677 39.0237 7.3884 37.2403 5.71843 34.7688C4.04846 32.2973 3.32984 29.3047 3.69545 26.3443C4.06105 23.384 5.48616 20.6561 7.70726 18.6651C9.92835 16.6742 12.7952 15.5547 15.7778 15.5138H29.2557V22.471H29.6966C30.7135 22.4692 31.7266 22.5951 32.7122 22.8457V1.68315L14.1024 1.66992ZM14.1024 12.0352C13.1892 12.0352 12.3134 11.6724 11.6676 11.0266C11.0219 10.3809 10.6591 9.50507 10.6591 8.59184C10.6591 7.67862 11.0219 6.80279 11.6676 6.15704C12.3134 5.5113 13.1892 5.14852 14.1024 5.14852H29.2557V12.0352H14.1024Z" fill="white"/>
<path d="M6.40237 47.8544L9.0293 50.1348L40.1245 14.3134L37.4975 12.0331L6.40237 47.8544Z" fill="white"/>
<path d="M60.6141 2.26961C61.9275 2.26961 63.0267 2.39404 63.9116 2.64291C64.8102 2.87795 65.4808 3.27199 65.9232 3.82502C66.3795 4.36423 66.6076 5.09701 66.6076 6.02334C66.6076 6.57638 66.5177 7.08102 66.338 7.53728C66.1583 7.99353 65.8956 8.36683 65.5499 8.65718C65.2181 8.94752 64.8102 9.13417 64.3263 9.21712V9.32082C64.8241 9.4176 65.2734 9.59042 65.6744 9.83929C66.0753 10.0882 66.3933 10.4476 66.6283 10.9177C66.8634 11.3878 66.9809 12.01 66.9809 12.7842C66.9809 13.6829 66.7597 14.4571 66.3173 15.107C65.8887 15.7429 65.2665 16.2338 64.4508 16.5794C63.635 16.9112 62.6672 17.0771 61.5473 17.0771H56.0101V2.26961H60.6141ZM60.9666 8.1387C61.8791 8.1387 62.5082 7.99353 62.8539 7.70319C63.2133 7.41284 63.3931 6.99115 63.3931 6.43812C63.3931 5.87126 63.1857 5.46339 62.7709 5.21453C62.3561 4.96566 61.6994 4.84123 60.8007 4.84123H59.1416V8.1387H60.9666ZM59.1416 10.6274V14.4848H61.1948C62.1349 14.4848 62.7917 14.3051 63.165 13.9456C63.5383 13.5723 63.7249 13.0815 63.7249 12.4731C63.7249 12.0998 63.6419 11.7749 63.476 11.4984C63.324 11.2219 63.0543 11.0076 62.6672 10.8555C62.2801 10.7034 61.7547 10.6274 61.0911 10.6274H59.1416ZM74.3613 5.54635C75.4121 5.54635 76.3108 5.74682 77.0574 6.14777C77.8178 6.54873 78.4054 7.12941 78.8202 7.88984C79.235 8.65026 79.4424 9.58351 79.4424 10.6896V12.1828H72.1423C72.1699 13.0538 72.4257 13.7382 72.9096 14.2359C73.4074 14.7337 74.0917 14.9825 74.9628 14.9825C75.6955 14.9825 76.3592 14.9134 76.9537 14.7751C77.5482 14.6231 78.1635 14.3949 78.7995 14.0908V16.4757C78.2464 16.7522 77.6588 16.9527 77.0367 17.0771C76.4283 17.2154 75.6886 17.2845 74.8176 17.2845C73.6839 17.2845 72.6815 17.0771 71.8105 16.6624C70.9394 16.2338 70.255 15.5909 69.7573 14.7337C69.2596 13.8765 69.0107 12.798 69.0107 11.4984C69.0107 10.1711 69.2319 9.07195 69.6744 8.20092C70.1306 7.31606 70.7597 6.65242 71.5616 6.20999C72.3635 5.76756 73.2967 5.54635 74.3613 5.54635ZM74.3821 7.74467C73.7876 7.74467 73.2898 7.93823 72.8889 8.32535C72.5018 8.71248 72.2736 9.31391 72.2045 10.1296H76.5389C76.5389 9.67338 76.456 9.26551 76.2901 8.90604C76.138 8.54657 75.9029 8.26314 75.5849 8.05575C75.2669 7.84836 74.866 7.74467 74.3821 7.74467ZM86.5935 5.52561C88.1144 5.52561 89.2758 5.85743 90.0777 6.52107C90.8934 7.17089 91.3013 8.17327 91.3013 9.52821V17.0771H89.1444L88.543 15.5425H88.46C88.142 15.9434 87.8102 16.2752 87.4646 16.5379C87.1327 16.8006 86.7456 16.9873 86.3032 17.0979C85.8746 17.2223 85.3423 17.2845 84.7063 17.2845C84.0427 17.2845 83.4412 17.1601 82.902 16.9112C82.3766 16.6485 81.9619 16.2545 81.6577 15.7291C81.3535 15.1899 81.2014 14.5124 81.2014 13.6967C81.2014 12.4939 81.6231 11.609 82.4665 11.0421C83.3099 10.4615 84.575 10.1435 86.2617 10.0882L88.2319 10.0259V9.52821C88.2319 8.93369 88.0729 8.49818 87.7549 8.22166C87.4507 7.94514 87.0221 7.80688 86.4691 7.80688C85.9161 7.80688 85.3769 7.88984 84.8515 8.05575C84.3261 8.20783 83.8007 8.4014 83.2753 8.63644L82.2591 6.54181C82.8675 6.22382 83.538 5.97495 84.2708 5.79521C85.0174 5.61548 85.7916 5.52561 86.5935 5.52561ZM87.0291 11.8717C86.0336 11.8993 85.3423 12.0791 84.9552 12.4109C84.568 12.7427 84.3745 13.1782 84.3745 13.7175C84.3745 14.1875 84.5127 14.5263 84.7893 14.7337C85.0658 14.9272 85.4252 15.024 85.8677 15.024C86.5313 15.024 87.0913 14.8304 87.5475 14.4433C88.0038 14.0424 88.2319 13.4824 88.2319 12.7635V11.8302L87.0291 11.8717ZM68.2875 38.5282C68.2875 40.1873 67.9695 41.5768 67.3335 42.6967C66.6975 43.8166 65.7711 44.66 64.5545 45.2269C63.3516 45.7937 61.8999 46.0771 60.1993 46.0771H56.0101V31.2696H60.6556C62.2041 31.2696 63.5452 31.5461 64.6789 32.0992C65.8264 32.6522 66.7113 33.4679 67.3335 34.5463C67.9695 35.6109 68.2875 36.9382 68.2875 38.5282ZM65.0315 38.6112C65.0315 37.5189 64.8725 36.6202 64.5545 35.9151C64.2365 35.21 63.7595 34.6915 63.1235 34.3597C62.5013 34.0141 61.734 33.8412 60.8215 33.8412H59.1416V43.4848H60.4896C62.0243 43.4848 63.165 43.0769 63.9116 42.2612C64.6582 41.4455 65.0315 40.2288 65.0315 38.6112ZM75.779 34.5463C76.8298 34.5463 77.7285 34.7468 78.4751 35.1478C79.2355 35.5487 79.8231 36.1294 80.2379 36.8898C80.6527 37.6503 80.8601 38.5835 80.8601 39.6896V41.1828H73.56C73.5876 42.0538 73.8434 42.7382 74.3273 43.2359C74.825 43.7337 75.5094 43.9825 76.3805 43.9825C77.1132 43.9825 77.7769 43.9134 78.3714 43.7751C78.9659 43.6231 79.5812 43.3949 80.2171 43.0908V45.4757C79.6641 45.7522 79.0765 45.9527 78.4543 46.0771C77.846 46.2154 77.1063 46.2845 76.2353 46.2845C75.1016 46.2845 74.0992 46.0771 73.2282 45.6624C72.3571 45.2338 71.6727 44.5909 71.175 43.7337C70.6773 42.8765 70.4284 41.798 70.4284 40.4984C70.4284 39.1711 70.6496 38.072 71.0921 37.2009C71.5483 36.3161 72.1774 35.6524 72.9793 35.21C73.7812 34.7676 74.7144 34.5463 75.779 34.5463ZM75.7998 36.7447C75.2053 36.7447 74.7075 36.9382 74.3066 37.3254C73.9195 37.7125 73.6913 38.3139 73.6222 39.1296H77.9566C77.9566 38.6734 77.8737 38.2655 77.7077 37.906C77.5557 37.5466 77.3206 37.2631 77.0026 37.0557C76.6846 36.8484 76.2837 36.7447 75.7998 36.7447ZM91.2672 42.7175C91.2672 43.4779 91.0875 44.1277 90.728 44.6669C90.3685 45.1923 89.8293 45.5932 89.1104 45.8698C88.3914 46.1463 87.4997 46.2845 86.4351 46.2845C85.647 46.2845 84.9695 46.2292 84.4027 46.1186C83.8358 46.0218 83.2689 45.8559 82.7021 45.6209V43.07C83.3104 43.3465 83.9672 43.5747 84.6723 43.7544C85.3774 43.9341 85.9996 44.024 86.5388 44.024C87.1471 44.024 87.5757 43.9341 87.8246 43.7544C88.0873 43.5747 88.2186 43.3396 88.2186 43.0493C88.2186 42.8557 88.1633 42.6829 88.0527 42.5308C87.9559 42.3787 87.7347 42.2059 87.3891 42.0123C87.0434 41.8188 86.5042 41.5699 85.7714 41.2657C85.0663 40.9616 84.4856 40.6643 84.0294 40.374C83.5731 40.0698 83.2344 39.7103 83.0132 39.2955C82.792 38.8669 82.6813 38.3346 82.6813 37.6987C82.6813 36.6479 83.0892 35.8598 83.9049 35.3344C84.7207 34.809 85.806 34.5463 87.1609 34.5463C87.8661 34.5463 88.5366 34.6155 89.1726 34.7537C89.8086 34.892 90.4653 35.1201 91.1428 35.4381L90.2095 37.6572C89.8362 37.4913 89.4768 37.3461 89.1311 37.2217C88.7855 37.0972 88.4467 37.0004 88.1149 36.9313C87.7969 36.8622 87.4651 36.8276 87.1195 36.8276C86.6632 36.8276 86.3176 36.8898 86.0825 37.0143C85.8613 37.1387 85.7507 37.3254 85.7507 37.5742C85.7507 37.754 85.806 37.9199 85.9166 38.072C86.041 38.2102 86.2692 38.3623 86.601 38.5282C86.9466 38.6941 87.4513 38.9153 88.1149 39.1919C88.7647 39.4545 89.3247 39.7311 89.7948 40.0214C90.2649 40.2979 90.6243 40.6505 90.8732 41.0791C91.1359 41.4939 91.2672 42.04 91.2672 42.7175ZM96.7645 34.7537V46.0771H93.6744V34.7537H96.7645ZM95.2298 30.3156C95.6861 30.3156 96.0801 30.4262 96.4119 30.6474C96.7437 30.8548 96.9097 31.2489 96.9097 31.8296C96.9097 32.3964 96.7437 32.7905 96.4119 33.0117C96.0801 33.2329 95.6861 33.3435 95.2298 33.3435C94.7597 33.3435 94.3588 33.2329 94.027 33.0117C93.709 32.7905 93.55 32.3964 93.55 31.8296C93.55 31.2489 93.709 30.8548 94.027 30.6474C94.3588 30.4262 94.7597 30.3156 95.2298 30.3156ZM103.664 34.5463C104.355 34.5463 104.978 34.6846 105.531 34.9611C106.084 35.2376 106.554 35.6524 106.941 36.2055H107.024L107.273 34.7537H109.886V46.0979C109.886 47.1763 109.671 48.0819 109.243 48.8147C108.828 49.5474 108.199 50.1005 107.356 50.4738C106.512 50.8609 105.468 51.0545 104.224 51.0545C103.422 51.0545 102.675 51.0061 101.984 50.9093C101.307 50.8125 100.643 50.6397 99.9933 50.3908V47.9229C100.463 48.1165 100.933 48.2755 101.404 48.3999C101.887 48.5382 102.378 48.6349 102.876 48.6902C103.388 48.7594 103.899 48.7939 104.411 48.7939C105.213 48.7939 105.807 48.5796 106.194 48.151C106.595 47.7224 106.796 47.0795 106.796 46.2223V45.9942C106.796 45.7592 106.803 45.5172 106.816 45.2683C106.844 45.0195 106.865 44.7983 106.879 44.6047H106.796C106.408 45.1992 105.945 45.6278 105.406 45.8905C104.867 46.1532 104.259 46.2845 103.581 46.2845C102.24 46.2845 101.189 45.773 100.429 44.7499C99.6822 43.7129 99.3089 42.275 99.3089 40.4362C99.3089 39.1919 99.4817 38.1342 99.8274 37.2631C100.173 36.3783 100.671 35.7077 101.321 35.2515C101.984 34.7814 102.765 34.5463 103.664 34.5463ZM104.639 37.0557C104.155 37.0557 103.747 37.1871 103.415 37.4498C103.097 37.6987 102.855 38.0789 102.689 38.5904C102.537 39.0882 102.461 39.7172 102.461 40.4777C102.461 41.6114 102.641 42.4617 103 43.0285C103.36 43.5816 103.92 43.8581 104.68 43.8581C105.081 43.8581 105.427 43.8097 105.717 43.7129C106.008 43.6023 106.243 43.4295 106.422 43.1944C106.616 42.9456 106.761 42.6276 106.858 42.2405C106.955 41.8533 107.003 41.3833 107.003 40.8302V40.4569C107.003 39.6412 106.92 38.9845 106.754 38.4867C106.588 37.989 106.332 37.6295 105.987 37.4083C105.641 37.1733 105.192 37.0557 104.639 37.0557ZM119.546 34.5463C120.763 34.5463 121.738 34.8782 122.47 35.5418C123.203 36.1916 123.569 37.2424 123.569 38.6941V46.0771H120.479V39.4615C120.479 38.6457 120.334 38.0374 120.044 37.6364C119.753 37.2217 119.29 37.0143 118.654 37.0143C117.714 37.0143 117.071 37.3392 116.726 37.989C116.38 38.625 116.207 39.5444 116.207 40.7473V46.0771H113.117V34.7537H115.481L115.896 36.2055H116.062C116.311 35.8183 116.615 35.5072 116.974 35.2722C117.334 35.0233 117.735 34.8436 118.177 34.733C118.62 34.6086 119.076 34.5463 119.546 34.5463Z" fill="white"/>
</svg>
