<svg width="28" height="35" viewBox="0 0 28 35" fill="none" xmlns="http://www.w3.org/2000/svg">
<g clip-path="url(#clip0_1385_1952)">
<path d="M17.6266 12.9128C17.0916 12.8075 16.548 12.7526 16.0028 12.749H15.7654V14.6221H16.0028C16.5503 14.6212 17.0959 14.689 17.6266 14.8239C19.1955 15.2199 20.5656 16.1756 21.4792 17.5111C22.3928 18.8466 22.7869 20.4699 22.5874 22.0756C22.3878 23.6814 21.6085 25.1589 20.3958 26.2302C19.1832 27.3015 17.6209 27.8928 16.0028 27.8928H8.75255V24.1585H8.51515C7.96441 24.16 7.41566 24.0922 6.88184 23.9567V29.7754H16.0028C18.1137 29.7691 20.1469 28.9783 21.7073 27.5566C23.2678 26.135 24.244 24.1841 24.4464 22.0829C24.6489 19.9817 24.063 17.8803 22.8026 16.1869C21.5423 14.4935 19.6975 13.3292 17.6266 12.92V12.9128Z" fill="white"/>
<path d="M7.5936 3.43066C6.85654 3.43081 6.13608 3.64949 5.52328 4.05905C4.91048 4.46861 4.43288 5.05066 4.15084 5.73162C3.8688 6.41258 3.79499 7.16188 3.93874 7.88479C4.08249 8.60769 4.43735 9.27174 4.95846 9.793C3.32188 10.5444 1.9659 11.7956 1.08568 13.3666C0.205459 14.9376 -0.153603 16.7474 0.0601746 18.5355C0.273952 20.3236 1.04954 21.9977 2.27532 23.317C3.50109 24.6362 5.11382 25.5325 6.8814 25.8769C7.41826 25.979 7.96349 26.0306 8.50997 26.0312H8.74737V24.1581H8.50997C7.96081 24.1592 7.41369 24.0914 6.8814 23.9563C5.32903 23.5442 3.97837 22.584 3.07915 21.2531C2.17994 19.9223 1.79299 18.3109 1.98986 16.7169C2.18672 15.1228 2.95408 13.654 4.15006 12.5819C5.34604 11.5099 6.88973 10.9071 8.49572 10.885H15.7531V14.6312H15.9905C16.538 14.6303 17.0836 14.6981 17.6143 14.833V3.43779L7.5936 3.43066ZM7.5936 9.01195C7.10187 9.01195 6.63027 8.81661 6.28256 8.4689C5.93485 8.12119 5.7395 7.64959 5.7395 7.15785C5.7395 6.66612 5.93485 6.19452 6.28256 5.84681C6.63027 5.4991 7.10187 5.30375 7.5936 5.30375H15.7531V9.01195H7.5936Z" fill="white"/>
<path d="M3.44683 28.2985L4.86133 29.5264L21.6049 10.2379L20.1904 9.01007L3.44683 28.2985Z" fill="white"/>
</g>
<defs>
<clipPath id="clip0_1385_1952">
<rect width="28" height="34.2996" fill="white"/>
</clipPath>
</defs>
</svg>
