<svg width="48" height="44" viewBox="0 0 48 44" fill="none" xmlns="http://www.w3.org/2000/svg">
<rect x="0.242676" width="47" height="44" rx="7.37864" fill="#005BFC"/>
<path d="M20.0734 22.1364C22.3656 22.1364 24.2238 20.2782 24.2238 17.9859C24.2238 15.6937 22.3656 13.8354 20.0734 13.8354C17.7811 13.8354 15.9229 15.6937 15.9229 17.9859C15.9229 20.2782 17.7811 22.1364 20.0734 22.1364Z" fill="white"/>
<path d="M20.0734 24.9034C17.4626 24.9034 15.1421 26.328 13.6717 28.5359C13.3495 29.0195 13.1885 29.2614 13.207 29.5703C13.2214 29.8109 13.3791 30.1053 13.5713 30.2507C13.8182 30.4374 14.1577 30.4374 14.8367 30.4374H25.31C25.989 30.4374 26.3285 30.4374 26.5754 30.2507C26.7676 30.1053 26.9253 29.8109 26.9397 29.5703C26.9582 29.2614 26.7972 29.0195 26.475 28.5359C25.0046 26.328 22.6841 24.9034 20.0734 24.9034Z" fill="white"/>
<path d="M27.9132 25.6753C29.256 26.3499 30.4073 27.4324 31.2476 28.7861C31.414 29.0541 31.4972 29.1882 31.526 29.3738C31.5845 29.751 31.3265 30.2147 30.9752 30.3639C30.8024 30.4374 30.6079 30.4374 30.219 30.4374M26.0685 21.705C27.4351 21.0258 28.3743 19.6156 28.3743 17.9859C28.3743 16.3563 27.4351 14.946 26.0685 14.2669M24.2238 17.9859C24.2238 20.2782 22.3656 22.1364 20.0734 22.1364C17.7811 22.1364 15.9229 20.2782 15.9229 17.9859C15.9229 15.6937 17.7811 13.8354 20.0734 13.8354C22.3656 13.8354 24.2238 15.6937 24.2238 17.9859ZM13.6717 28.5359C15.1421 26.328 17.4626 24.9034 20.0734 24.9034C22.6841 24.9034 25.0046 26.328 26.475 28.5359C26.7972 29.0195 26.9582 29.2614 26.9397 29.5703C26.9253 29.8109 26.7676 30.1053 26.5754 30.2507C26.3285 30.4374 25.989 30.4374 25.31 30.4374H14.8367C14.1577 30.4374 13.8182 30.4374 13.5713 30.2507C13.3791 30.1053 13.2214 29.8109 13.207 29.5703C13.1885 29.2614 13.3495 29.0195 13.6717 28.5359Z" stroke="white" stroke-width="1.84466" stroke-linecap="round" stroke-linejoin="round"/>
</svg>
