<svg width="162" height="95" viewBox="0 0 162 95" fill="none" xmlns="http://www.w3.org/2000/svg">
<rect width="162" height="95" rx="11.122" fill="white"/>
<path fill-rule="evenodd" clip-rule="evenodd" d="M29.6752 58.8597C31.1418 59.4789 32.641 59.7885 34.1728 59.7885C35.8024 59.7885 37.2364 59.4952 38.4748 58.9086C39.7459 58.2893 40.8051 57.4094 41.6525 56.2687V69.8103H42.0292L41.7761 70.4139L50.5733 74.1035L50.6794 74.2723L50.8005 74.1988L50.8047 74.2006L50.8071 74.1948L60.5848 68.2596H139.83V60.3584H57.5553L57.5531 60.4564L50.2462 65.0259L49.8654 64.8662V32.8519H41.7014V35.8829C40.9192 34.7748 39.9088 33.9112 38.6704 33.2919C37.4319 32.6401 35.9653 32.3142 34.2706 32.3142C32.6736 32.3142 31.1255 32.6401 29.6263 33.2919C28.1597 33.9112 26.8561 34.8237 25.7154 36.0296C24.6073 37.2029 23.711 38.6369 23.0266 40.3316C22.3422 42.0264 22 43.9329 22 46.0514C22 48.2024 22.3422 50.1253 23.0266 51.82C23.711 53.5147 24.6236 54.9487 25.7643 56.122C26.905 57.2953 28.2086 58.2079 29.6752 58.8597ZM38.4259 51.5267C37.7089 51.82 36.943 51.9667 36.1283 51.9667C35.3135 51.9667 34.5313 51.82 33.7817 51.5267C33.0647 51.2008 32.4292 50.7771 31.8751 50.2556C31.3537 49.7016 30.93 49.066 30.6041 48.349C30.3107 47.632 30.1641 46.8498 30.1641 46.0025C30.1641 45.1877 30.3107 44.4218 30.6041 43.7048C30.93 42.9552 31.3537 42.3197 31.8751 41.7982C32.4292 41.2442 33.0647 40.8205 33.7817 40.5272C34.5313 40.2012 35.3135 40.0383 36.1283 40.0383C36.943 40.0383 37.7089 40.2012 38.4259 40.5272C39.1755 40.8205 39.8111 41.2442 40.3325 41.7982C40.8866 42.3197 41.3103 42.9552 41.6036 43.7048C41.9295 44.4218 42.0925 45.1877 42.0925 46.0025C42.0925 46.8498 41.9295 47.632 41.6036 48.349C41.3103 49.066 40.8866 49.7016 40.3325 50.2556C39.8111 50.7771 39.1755 51.2008 38.4259 51.5267ZM56.8287 57.0509C58.5561 58.876 60.9189 59.7885 63.9173 59.7885C65.3839 59.7885 66.7039 59.4789 67.8772 58.8597C69.083 58.2405 70.1096 57.3605 70.957 56.2198V59.2508L79.2189 59.2019V32.8031L70.8592 32.8519V47.3713C70.8592 49.1312 70.4682 50.4349 69.686 51.2822C68.9364 52.097 67.9586 52.5044 66.7528 52.5044C65.3839 52.5044 64.3736 52.097 63.7218 51.2822C63.07 50.4675 62.744 49.2942 62.744 47.7624V32.8519H54.2866V49.3268C54.2866 52.6511 55.134 55.2258 56.8287 57.0509ZM94.939 58.7619C96.2427 59.4463 97.7582 59.7885 99.4855 59.7885C101.017 59.7885 102.516 59.4789 103.983 58.8597C105.45 58.2079 106.737 57.2953 107.845 56.122C108.986 54.9487 109.898 53.5147 110.583 51.82C111.267 50.1253 111.609 48.2024 111.609 46.0514C111.609 43.9329 111.267 42.0264 110.583 40.3316C109.898 38.6369 108.986 37.2029 107.845 36.0296C106.737 34.8237 105.45 33.9112 103.983 33.2919C102.516 32.6401 100.985 32.3142 99.3877 32.3142C97.6278 32.3142 96.1286 32.6564 94.8901 33.3408C93.6517 34.0252 92.6576 34.9541 91.908 36.1274V20.728H83.7928V59.2508H91.8592V55.8287C92.6413 57.0672 93.668 58.0449 94.939 58.7619ZM91.9569 48.349C91.6636 47.632 91.517 46.8498 91.517 46.0025C91.517 45.1877 91.6636 44.4218 91.9569 43.7048C92.2828 42.9552 92.7065 42.3197 93.228 41.7982C93.782 41.2442 94.4176 40.8205 95.1346 40.5272C95.8842 40.2012 96.6664 40.0383 97.4811 40.0383C98.2959 40.0383 99.0618 40.2012 99.7788 40.5272C100.528 40.8205 101.164 41.2442 101.685 41.7982C102.239 42.3197 102.663 42.9552 102.956 43.7048C103.282 44.4218 103.445 45.1877 103.445 46.0025C103.445 46.8498 103.282 47.632 102.956 48.349C102.663 49.066 102.239 49.7016 101.685 50.2556C101.164 50.7771 100.528 51.2008 99.7788 51.5267C99.0618 51.82 98.2959 51.9667 97.4811 51.9667C96.6664 51.9667 95.8842 51.82 95.1346 51.5267C94.4176 51.2008 93.782 50.7771 93.228 50.2556C92.7065 49.7016 92.2828 49.066 91.9569 48.349ZM119.37 59.2508C120.478 59.6093 121.716 59.7885 123.085 59.7885C125.106 59.7885 126.898 59.43 128.463 58.713C130.027 57.9634 131.249 56.9694 132.129 55.7309V59.2508H140V43.1182C140 39.6635 138.924 37.0073 136.773 35.1496C134.622 33.2593 131.543 32.3142 127.534 32.3142C124.47 32.3142 121.928 32.8682 119.908 33.9763C117.919 35.0844 116.225 36.5347 114.823 38.3273L122.596 41.7982C123.053 40.8857 123.688 40.2012 124.503 39.745C125.318 39.2887 126.344 39.0606 127.583 39.0606C129.049 39.0606 130.157 39.4028 130.907 40.0872C131.689 40.739 132.08 41.619 132.08 42.7271V42.9226H126.018C124.193 42.9226 122.547 43.1345 121.081 43.5581C119.614 43.9818 118.359 44.5848 117.317 45.3669C116.274 46.1165 115.475 47.0454 114.921 48.1535C114.367 49.2616 114.09 50.5001 114.09 51.8689C114.09 53.1073 114.302 54.2154 114.726 55.1932C115.149 56.1709 115.752 57.002 116.534 57.6864C117.317 58.3708 118.262 58.8923 119.37 59.2508ZM127.876 52.9933C127.224 53.1888 126.556 53.2866 125.872 53.2866C123.786 53.2866 122.743 52.5859 122.743 51.1845C122.743 50.4349 123.085 49.8319 123.77 49.3757C124.454 48.8868 125.578 48.6424 127.143 48.6424H132.178V49.1801C131.983 49.7342 131.673 50.2719 131.249 50.7934C130.826 51.2822 130.32 51.7222 129.734 52.1133C129.18 52.4718 128.56 52.7651 127.876 52.9933Z" fill="url(#paint0_linear_1_3643)"/>
<path d="M105.988 63.2425C106.338 63.2425 106.593 63.4898 106.593 63.957V65.7021H107.424V63.8677C107.424 62.9264 106.964 62.4248 106.187 62.4248C105.94 62.4248 105.473 62.4936 105.177 63.0295C104.992 62.6378 104.669 62.4592 104.154 62.4317C103.844 62.4317 103.418 62.576 103.233 62.9676V62.4936H102.395V65.7021H103.233V63.9914C103.233 63.4417 103.563 63.2425 103.906 63.2425C104.236 63.2425 104.49 63.4898 104.497 63.9364V65.7021H105.335V63.9914C105.335 63.4967 105.603 63.2425 105.988 63.2425ZM111.261 62.4936H110.367L109.564 64.4929L108.767 62.4936H107.873L109.124 65.4548L108.389 67.2687H109.275L111.261 62.4936ZM114.084 64.1082C114.084 64.6578 113.665 64.9739 113.232 64.9739C112.765 64.9739 112.394 64.6303 112.394 64.1082C112.394 63.5791 112.765 63.2287 113.232 63.2287C113.693 63.2287 114.084 63.5722 114.084 64.1082ZM114.098 62.9264C113.926 62.6035 113.514 62.4248 113.095 62.4248C112.257 62.4248 111.528 63.0844 111.528 64.0944C111.528 65.1181 112.257 65.7709 113.095 65.7709C113.514 65.7709 113.926 65.5991 114.098 65.2762V67.2618H114.936V62.4936H114.098V62.9264ZM117.997 64.2043C117.997 64.7609 117.653 64.9532 117.303 64.9532C117.008 64.9532 116.692 64.7609 116.692 64.2387V62.4936H115.846V64.3899C115.846 65.2968 116.348 65.7709 117.111 65.7709C117.434 65.7709 117.818 65.5922 117.997 65.2487V65.7021H118.835V62.4936H117.997V64.2043ZM120.638 64.0875C120.638 63.5379 121.057 63.2218 121.49 63.2218C121.957 63.2218 122.335 63.5654 122.335 64.0875C122.335 64.6166 121.957 64.967 121.49 64.967C121.03 64.967 120.638 64.6235 120.638 64.0875ZM120.624 65.7021V65.2693C120.796 65.5922 121.208 65.7709 121.627 65.7709C122.472 65.7709 123.201 65.1181 123.201 64.1013C123.201 63.0776 122.472 62.4248 121.627 62.4248C121.194 62.4248 120.796 62.5966 120.624 62.9195V60.7484H119.786V65.7021H120.624ZM126.385 65.7021H127.223V62.4936H126.385V62.892C126.144 62.5416 125.684 62.4248 125.389 62.4248C124.544 62.4248 123.753 63.0707 123.753 64.0944C123.753 65.1181 124.544 65.764 125.389 65.764C125.698 65.764 126.186 65.6197 126.385 65.2899V65.7021ZM124.619 64.0944C124.619 63.5722 125.038 63.2287 125.505 63.2287C125.945 63.2287 126.385 63.5448 126.385 64.0944C126.385 64.6441 125.966 64.9601 125.505 64.9601C125.038 64.9601 124.619 64.6166 124.619 64.0944ZM128.091 65.2487C128.091 65.551 128.331 65.7709 128.626 65.7709C128.929 65.7709 129.176 65.551 129.176 65.2487C129.176 64.9464 128.929 64.7265 128.626 64.7265C128.331 64.7265 128.091 64.9464 128.091 65.2487ZM130.883 63.9914C130.883 63.4348 131.199 63.2425 131.584 63.2425C131.948 63.2425 132.196 63.4898 132.196 63.957V65.7021H133.034V63.8058C133.034 62.892 132.587 62.4248 131.838 62.4248C131.46 62.4248 131.069 62.6172 130.883 62.9676V62.4936H130.045V65.7021H130.883V63.9914ZM136.355 64.0944C136.355 64.6372 135.915 64.9739 135.482 64.9739C135.015 64.9739 134.617 64.6303 134.617 64.0944C134.617 63.5722 135.015 63.2287 135.482 63.2287C135.943 63.2287 136.355 63.5448 136.355 64.0944ZM134.548 66.0113C134.362 66.1006 134.053 66.2655 133.868 66.3549C134.149 66.9389 134.733 67.303 135.4 67.303C136.513 67.303 137.193 66.6709 137.193 65.2418V62.4936H136.376V62.9264C136.19 62.6035 135.771 62.4248 135.352 62.4248C134.514 62.4248 133.744 63.0776 133.744 64.1082C133.744 65.125 134.514 65.7709 135.352 65.7709C135.764 65.7709 136.211 65.5853 136.376 65.2624C136.43 65.9358 136.211 66.5404 135.4 66.5404C135.063 66.5404 134.685 66.3342 134.548 66.0113Z" fill="url(#paint1_linear_1_3643)"/>
<defs>
<linearGradient id="paint0_linear_1_3643" x1="81" y1="20.728" x2="81" y2="74.2723" gradientUnits="userSpaceOnUse">
<stop stop-color="#08982C"/>
<stop offset="1" stop-color="#2A95AB"/>
</linearGradient>
<linearGradient id="paint1_linear_1_3643" x1="119.795" y1="60.7021" x2="119.795" y2="67.5727" gradientUnits="userSpaceOnUse">
<stop stop-color="#2A95AB"/>
<stop offset="1" stop-color="#08982C"/>
</linearGradient>
</defs>
</svg>
