<svg width="46" height="46" viewBox="0 0 46 46" fill="none" xmlns="http://www.w3.org/2000/svg">
<rect x="0.985352" y="0.932129" width="44.2718" height="44.2718" rx="7.37864" fill="#005BFC"/>
<g clip-path="url(#clip0_1_3102)">
<path d="M22.4778 31.9364C22.682 32.0555 22.7841 32.1151 22.9282 32.146C23.04 32.17 23.2031 32.17 23.315 32.146C23.459 32.1151 23.5611 32.0555 23.7653 31.9364C25.5621 30.8882 30.5002 27.5955 30.5002 23.0683V18.6573C30.5002 17.9199 30.5002 17.5512 30.3796 17.2343C30.2731 16.9543 30.0999 16.7045 29.8752 16.5064C29.6208 16.2822 29.2755 16.1527 28.5851 15.8938L23.6397 14.0393C23.448 13.9674 23.3521 13.9314 23.2535 13.9172C23.166 13.9046 23.0771 13.9046 22.9897 13.9172C22.891 13.9314 22.7951 13.9674 22.6034 14.0393L17.6581 15.8938C16.9676 16.1527 16.6224 16.2822 16.3679 16.5064C16.1432 16.7045 15.9701 16.9543 15.8635 17.2343C15.7429 17.5512 15.7429 17.9199 15.7429 18.6573V23.0683C15.7429 27.5955 20.681 30.8882 22.4778 31.9364Z" fill="white"/>
<path d="M20.3546 22.6071L22.1992 24.4518L26.3497 20.3013M30.5002 23.0683C30.5002 27.5955 25.5621 30.8882 23.7653 31.9364C23.5611 32.0555 23.459 32.1151 23.315 32.146C23.2031 32.17 23.04 32.17 22.9282 32.146C22.7841 32.1151 22.682 32.0555 22.4778 31.9364C20.681 30.8882 15.7429 27.5955 15.7429 23.0683V18.6573C15.7429 17.9199 15.7429 17.5512 15.8635 17.2343C15.9701 16.9543 16.1432 16.7045 16.3679 16.5064C16.6224 16.2822 16.9676 16.1527 17.6581 15.8938L22.6034 14.0393C22.7951 13.9674 22.891 13.9314 22.9897 13.9172C23.0771 13.9046 23.166 13.9046 23.2535 13.9172C23.3521 13.9314 23.448 13.9674 23.6397 14.0393L28.5851 15.8938C29.2755 16.1527 29.6208 16.2822 29.8752 16.5064C30.0999 16.7045 30.2731 16.9543 30.3796 17.2343C30.5002 17.5512 30.5002 17.9199 30.5002 18.6573V23.0683Z" stroke="white" stroke-width="1.84466" stroke-linecap="round" stroke-linejoin="round"/>
</g>
<g clip-path="url(#clip1_1_3102)">
<path d="M25.5814 21.2231L22.1996 24.605L20.6624 23.0678" stroke="white" stroke-width="1.84466" stroke-linecap="round" stroke-linejoin="round"/>
</g>
<defs>
<clipPath id="clip0_1_3102">
<rect width="22.1359" height="22.1359" fill="white" transform="translate(12.0537 12.0005)"/>
</clipPath>
<clipPath id="clip1_1_3102">
<rect width="7.37864" height="7.37864" fill="white" transform="translate(19.4326 19.3784)"/>
</clipPath>
</defs>
</svg>
