<svg width="95" height="95" viewBox="0 0 95 95" fill="none" xmlns="http://www.w3.org/2000/svg">
<rect width="95" height="95" rx="11.122" fill="white"/>
<path d="M5.56104 12.8548C5.56104 8.82655 8.82656 5.56104 12.8548 5.56104L82.1453 5.56104C86.1736 5.56104 89.4391 8.82656 89.4391 12.8548V23.5381H58.2753C52.6172 23.5381 47.1693 25.7098 43.0787 29.6128L29.3613 42.7009L37.2285 50.9463L50.9459 37.8582C52.9058 35.9882 55.5321 34.9345 58.2753 34.9345H89.4391L89.4391 82.1453C89.4391 86.1736 86.1736 89.4391 82.1453 89.4391L12.8548 89.4391C8.82655 89.4391 5.56104 86.1736 5.56104 82.1453L5.56104 74.6751H34.0191C39.6941 74.6751 45.1482 72.4755 49.2353 68.5383L62.9527 55.3243L55.0462 47.1166L41.3288 60.3306C39.3654 62.222 36.7453 63.2787 34.0191 63.2787H5.56104L5.56104 12.8548Z" fill="#4436AC"/>
</svg>
