<svg width="246" height="256" viewBox="0 0 246 256" fill="none" xmlns="http://www.w3.org/2000/svg">
<path d="M198.903 66.8454C193.113 83.9646 182.506 102.035 164.892 109.043C160.431 110.818 155.408 111.371 150.486 110.809M150.486 110.809C142.99 109.954 135.729 106.513 131.045 100.868C123.717 92.0364 120.013 80.0155 126.828 69.9362C130.38 64.6825 135.788 61.6567 142.03 64.2909C151.568 68.3154 154.957 82.5805 154.323 91.7863C153.884 98.1511 152.564 104.561 150.486 110.809ZM72.0735 214.921C88.0715 206.516 104.253 193.203 108.409 174.708C109.462 170.023 109.219 164.975 107.892 160.203M107.892 160.203C105.87 152.934 101.332 146.303 95.022 142.564C85.1498 136.713 72.6965 134.942 63.8119 143.255C59.181 147.588 57.0415 153.403 60.623 159.155C66.0948 167.942 80.7151 169.05 89.707 166.978C95.9241 165.546 102.047 163.236 107.892 160.203ZM107.892 160.203C128.429 149.546 145.03 132.49 150.681 110.691" stroke="#FFCE00" stroke-width="3.90983" stroke-linecap="round"/>
<path d="M92.1709 218.78C87.0503 218.841 75.286 218.588 69.1938 217.093" stroke="#FFCE00" stroke-width="5.1887" stroke-linecap="round"/>
<path d="M69.1943 217.093C70.6385 212.18 73.5794 200.787 73.7894 194.517" stroke="#FFCE00" stroke-width="5.1887" stroke-linecap="round"/>
</svg>
