<svg width="290" height="20" viewBox="0 0 290 20" fill="none" xmlns="http://www.w3.org/2000/svg">
<path d="M125.34 18.7414C137.122 17.7516 148.908 16.9888 160.721 16.555C167.35 16.3119 173.978 16.1727 180.61 16.0511C189.574 15.8868 199.017 15.9757 207.783 13.7541C208.246 13.637 206.843 13.5954 206.371 13.5252C205.386 13.3785 204.387 13.3072 203.399 13.1842C200.94 12.8776 198.494 12.6626 196.026 12.454C187.544 11.7366 179.037 11.2616 170.527 11.1862C145.686 10.9655 121.351 11.0035 96.5799 13.3526C88.6296 14.1068 80.7063 15.0024 72.7676 15.8808C70.943 16.0826 65.4286 15.9528 64.1589 17.7035C63.6606 18.3905 65.8563 17.6975 66.7046 17.6724C68.1904 17.6285 69.6632 17.6484 71.1482 17.7024C75.8785 17.8743 80.6144 17.7838 85.342 17.5122C99.272 16.7119 113.258 16.3265 127.207 15.8091C154.304 14.8043 181.36 12.394 208.426 10.8699C216.527 10.414 224.603 9.53262 232.704 9.12664C237.25 8.89889 243.463 9.42156 247.614 7.17219C248.472 6.7073 245.678 6.92116 244.711 6.79171C242.994 6.56208 241.307 6.35312 239.578 6.2158C233.842 5.76067 228.031 5.90286 222.279 5.59894C205.638 4.71945 188.969 4.35062 172.298 4.34049C137.541 4.32023 102.22 4.54797 67.5818 7.56727C53.9801 8.75293 37.958 8.09295 24.9315 12.7219C23.9361 13.0757 27.0458 12.7602 28.0983 12.8491C30.1338 13.0213 32.2027 12.8746 34.245 13.0089C40.6089 13.4281 46.9596 12.9699 53.3262 12.8022C72.3211 12.3005 91.3544 12.227 110.376 11.821C131.367 11.3727 152.264 9.18669 173.224 8.13911C197.118 6.94482 221.004 6.24205 244.888 4.8973C256.133 4.26395 267.38 4.0756 278.639 4.10149C280.24 4.10524 287.794 5.03462 288.884 3.7698C289.621 2.91432 286.657 3.3927 285.541 3.21935C283.019 2.82763 280.489 2.61755 277.951 2.35979C271.136 1.66865 264.267 1.15307 257.417 1.06002C236.556 0.777114 215.674 1.60858 194.817 1.20448C171.781 0.758357 148.54 2.06746 125.495 2.62727C104.76 3.13117 83.9327 2.01943 63.181 2.16801C42.5738 2.31585 21.5956 5.74428 1 4.21005" stroke="#64D809" stroke-width="2" stroke-miterlimit="1.5" stroke-linecap="round" stroke-linejoin="round"/>
</svg>
